<svg width="48" height="48" viewBox="0 0 48 48" fill="none" xmlns="http://www.w3.org/2000/svg">
<path d="M10 7V24.9474V36.3158V41C10 41.5523 10.4477 42 11 42H37C37.5523 42 38 41.5523 38 41V15L29 6H11C10.4477 6 10 6.44771 10 7Z" fill="#EEEEEE"/>
<path d="M29 14V6L38 15H30C29.4477 15 29 14.5523 29 14Z" fill="#D8D8D8"/>
<path d="M4 26C4 25.4477 4.44772 25 5 25H27C27.5523 25 28 25.4477 28 26V36C28 36.5523 27.5523 37 27 37H5C4.44772 37 4 36.5523 4 36V26Z" fill="#3361D4"/>
<path d="M8 33.7656V28.0781H9.75C10.25 28.0781 10.6966 28.1914 11.0898 28.418C11.4857 28.6419 11.7943 28.9622 12.0156 29.3789C12.237 29.793 12.3477 30.2643 12.3477 30.793V31.0547C12.3477 31.5833 12.2383 32.0534 12.0195 32.4648C11.8034 32.8763 11.4974 33.1953 11.1016 33.4219C10.7057 33.6484 10.2591 33.763 9.76172 33.7656H8ZM9.17188 29.0273V32.8242H9.73828C10.1966 32.8242 10.5469 32.6745 10.7891 32.375C11.0312 32.0755 11.1549 31.6471 11.1602 31.0898V30.7891C11.1602 30.2109 11.0404 29.7734 10.8008 29.4766C10.5612 29.1771 10.2109 29.0273 9.75 29.0273H9.17188Z" fill="white"/>
<path d="M17.875 31.0508C17.875 31.6107 17.776 32.1016 17.5781 32.5234C17.3802 32.9453 17.0964 33.2708 16.7266 33.5C16.3594 33.7292 15.9375 33.8438 15.4609 33.8438C14.9896 33.8438 14.569 33.7305 14.1992 33.5039C13.8294 33.2773 13.543 32.9544 13.3398 32.5352C13.1367 32.1133 13.0339 31.6289 13.0312 31.082V30.8008C13.0312 30.2409 13.1315 29.7487 13.332 29.3242C13.5352 28.8971 13.8203 28.5703 14.1875 28.3438C14.5573 28.1146 14.9792 28 15.4531 28C15.9271 28 16.3477 28.1146 16.7148 28.3438C17.0846 28.5703 17.3698 28.8971 17.5703 29.3242C17.7734 29.7487 17.875 30.2396 17.875 30.7969V31.0508ZM16.6875 30.793C16.6875 30.1966 16.5807 29.7435 16.3672 29.4336C16.1536 29.1237 15.849 28.9688 15.4531 28.9688C15.0599 28.9688 14.7565 29.1224 14.543 29.4297C14.3294 29.7344 14.2214 30.1823 14.2188 30.7734V31.0508C14.2188 31.6315 14.3255 32.082 14.5391 32.4023C14.7526 32.7227 15.0599 32.8828 15.4609 32.8828C15.8542 32.8828 16.1562 32.7292 16.3672 32.4219C16.5781 32.112 16.6849 31.6615 16.6875 31.0703V30.793Z" fill="white"/>
<path d="M23.1914 31.8711C23.1471 32.4831 22.9206 32.9648 22.5117 33.3164C22.1055 33.668 21.569 33.8438 20.9023 33.8438C20.1732 33.8438 19.599 33.599 19.1797 33.1094C18.763 32.6172 18.5547 31.9427 18.5547 31.0859V30.7383C18.5547 30.1914 18.651 29.7096 18.8438 29.293C19.0365 28.8763 19.3112 28.5573 19.668 28.3359C20.0273 28.112 20.444 28 20.918 28C21.5742 28 22.1029 28.1758 22.5039 28.5273C22.9049 28.8789 23.1367 29.3724 23.1992 30.0078H22.0273C21.9987 29.6406 21.8958 29.375 21.7188 29.2109C21.5443 29.0443 21.2773 28.9609 20.918 28.9609C20.5273 28.9609 20.2344 29.1016 20.0391 29.3828C19.8464 29.6615 19.7474 30.0951 19.7422 30.6836V31.1133C19.7422 31.7279 19.8346 32.1771 20.0195 32.4609C20.207 32.7448 20.5013 32.8867 20.9023 32.8867C21.2643 32.8867 21.5339 32.8047 21.7109 32.6406C21.8906 32.474 21.9935 32.2174 22.0195 31.8711H23.1914Z" fill="white"/>
</svg>
