<?xml version="1.0" standalone="no"?>
<!DOCTYPE svg PUBLIC "-//W3C//DTD SVG 1.1//EN" "http://www.w3.org/Graphics/SVG/1.1/DTD/svg11.dtd" >
<svg xmlns="http://www.w3.org/2000/svg">
<metadata>Generated by IcoMoon</metadata>
<defs>
<font id="icomoon" horiz-adv-x="1024">
<font-face units-per-em="1024" ascent="960" descent="-64" />
<missing-glyph horiz-adv-x="1024" />
<glyph unicode="&#x20;" horiz-adv-x="512" d="" />
<glyph unicode="&#xe900;" glyph-name="action" d="M512 277.334c35.346 0 64-28.654 64-64s-28.654-64-64-64c-35.346 0-64 28.654-64 64s28.654 64 64 64zM512 490.667c35.346 0 64-28.654 64-64s-28.654-64-64-64c-35.346 0-64 28.654-64 64s28.654 64 64 64zM512 704c35.346 0 64-28.654 64-64s-28.654-64-64-64c-35.346 0-64 28.654-64 64s28.654 64 64 64z" />
<glyph unicode="&#xe901;" d="M512 640c23.564 0 42.667-19.103 42.667-42.667v-127.957l128-0.043c23.564 0 42.667-19.103 42.667-42.667s-19.103-42.667-42.667-42.667h-128v-128c0-23.564-19.103-42.667-42.667-42.667s-42.667 19.103-42.667 42.667v128h-128c-23.564 0-42.667 19.103-42.667 42.667s19.103 42.667 42.667 42.667h128v128c0 23.564 19.103 42.667 42.667 42.667z" />
<glyph unicode="&#xe902;" d="M512-0c235.641 0 426.667 191.025 426.667 426.667s-191.025 426.667-426.667 426.667c-235.641 0-426.667-191.025-426.667-426.667s191.025-426.667 426.667-426.667zM512 85.334c-188.513 0-341.333 152.82-341.333 341.333s152.82 341.333 341.333 341.333c188.513 0 341.333-152.82 341.333-341.333s-152.82-341.333-341.333-341.333z" />
<glyph unicode="&#xe903;" glyph-name="add" d="M512 853.334c23.564 0 42.667-19.103 42.667-42.667v-341.333h341.333c23.564 0 42.667-19.103 42.667-42.667s-19.103-42.667-42.667-42.667h-341.333v-341.333c0-23.564-19.103-42.667-42.667-42.667s-42.667 19.103-42.667 42.667v341.333h-341.333c-23.564 0-42.667 19.103-42.667 42.667s19.103 42.667 42.667 42.667h341.333v341.333c0 23.564 19.103 42.667 42.667 42.667z" />
<glyph unicode="&#xe904;" d="M539.767 10.272c207.634 177.972 313.566 344.437 313.566 501.728 0 211.847-158.261 341.333-341.333 341.333s-341.333-129.486-341.333-341.333c0-157.291 105.932-323.756 313.566-501.728 15.978-13.696 39.556-13.696 55.534 0zM256 512c0 160.516 116.702 256 256 256s256-95.484 256-256c0-117.263-79.248-250.916-241.062-399.129l-14.938-13.514c-171.876 153.611-256 291.826-256 412.643z" />
<glyph unicode="&#xe905;" d="M512 384c82.475 0 149.333 66.859 149.333 149.333s-66.859 149.333-149.333 149.333c-82.475 0-149.333-66.859-149.333-149.333s66.859-149.333 149.333-149.333zM512 469.334c-35.346 0-64 28.654-64 64s28.654 64 64 64c35.346 0 64-28.654 64-64s-28.654-64-64-64z" />
<glyph unicode="&#xe906;" d="M512 277.334c23.564 0 42.667-19.103 42.667-42.667s-19.103-42.667-42.667-42.667c-23.564 0-42.667 19.103-42.667 42.667s19.103 42.667 42.667 42.667zM512 661.334c23.564 0 42.667-19.103 42.667-42.667v-256c0-23.564-19.103-42.667-42.667-42.667s-42.667 19.103-42.667 42.667v256c0 23.564 19.103 42.667 42.667 42.667z" />
<glyph unicode="&#xe907;" d="M512-0c235.641 0 426.667 191.025 426.667 426.667s-191.025 426.667-426.667 426.667c-235.641 0-426.667-191.025-426.667-426.667s191.025-426.667 426.667-426.667zM512 85.334c-188.513 0-341.333 152.82-341.333 341.333s152.82 341.333 341.333 341.333c188.513 0 341.333-152.82 341.333-341.333s-152.82-341.333-341.333-341.333z" />
<glyph unicode="&#xe908;" glyph-name="attach" d="M512 607.686l-211.189-211.189c-49.987-49.987-49.987-131.032 0-181.019s131.032-49.987 181.019 0l286.614 286.614c74.981 74.981 74.981 196.548 0 271.529s-196.548 74.981-271.529 0l-286.614-286.614c-99.974-99.974-99.974-262.064 0-362.039s262.064-99.974 362.039 0l211.189 211.189c16.662 16.662 16.662 43.677 0 60.34s-43.677 16.662-60.34 0l-211.189-211.189c-66.649-66.649-174.71-66.649-241.359 0s-66.649 174.71 0 241.359l286.614 286.614c41.656 41.656 109.194 41.656 150.849 0s41.656-109.194 0-150.849l-286.614-286.614c-16.662-16.662-43.677-16.662-60.34 0s-16.662 43.677 0 60.34l211.189 211.189c16.662 16.662 16.662 43.677 0 60.34s-43.677 16.662-60.34 0z" />
<glyph unicode="&#xe909;" d="M542.17 840.837l77.103-77.103h101.794c23.564 0 42.667-19.103 42.667-42.667v-101.794l77.103-77.103c16.662-16.662 16.662-43.677 0-60.34l-77.103-77.103v-101.794c0-23.564-19.103-42.667-42.667-42.667l-38.6-0.002c0.132-1.267 0.2-2.551 0.2-3.85v-216.837c0-31.558-37.98-50.38-66.334-32.875l-104.333 64.411-104.333-64.411c-28.354-17.505-66.334 1.318-66.334 32.875v219.577l0.043 1.111h-38.443c-23.564 0-42.667 19.103-42.667 42.667v101.794l-77.103 77.103c-16.662 16.662-16.662 43.677 0 60.34l77.103 77.103v101.794c0 23.564 19.103 42.667 42.667 42.667h101.794l77.103 77.103c16.662 16.662 43.677 16.662 60.34 0zM597.333 238.379l-55.163-55.215c-16.662-16.662-43.677-16.662-60.34 0l-55.163 55.13v-124.888l61.666 38.071c14.332 8.848 33.003 8.848 47.334 0l61.666-38.071v124.973zM512 750.327l-59.43-59.43c-8.002-8.002-18.854-12.497-30.17-12.497h-76.8v-76.8c0-11.316-4.495-22.168-12.497-30.17l-59.43-59.43 59.43-59.43c8.002-8.002 12.497-18.854 12.497-30.17v-76.8h76.8c11.316 0 22.168-4.495 30.17-12.497l59.43-59.43 59.43 59.43c8.002 8.002 18.854 12.497 30.17 12.497h76.8v76.8c0 11.316 4.495 22.168 12.497 30.17l59.43 59.43-59.43 59.43c-8.002 8.002-12.497 18.854-12.497 30.17v76.8h-76.8c-11.316 0-22.168 4.495-30.17 12.497l-59.43 59.43z" />
<glyph unicode="&#xe90a;" d="M512 640c70.692 0 128-57.308 128-128s-57.308-128-128-128c-70.692 0-128 57.308-128 128s57.308 128 128 128zM512 554.667c-23.564 0-42.667-19.103-42.667-42.667s19.103-42.667 42.667-42.667c23.564 0 42.667 19.103 42.667 42.667s-19.103 42.667-42.667 42.667z" />
<glyph unicode="&#xe90b;" d="M239.394 8.884c-28.050-21.639-68.728-1.644-68.728 33.783v768c0 35.427 40.677 55.421 68.728 33.783l73.495-56.696 73.495 56.696c15.355 11.845 36.767 11.845 52.122 0l73.495-56.696 73.495 56.696c15.355 11.845 36.767 11.845 52.122 0l73.495-56.696 73.495 56.696c28.050 21.639 68.728 1.644 68.728-33.783v-768c0-35.427-40.677-55.421-68.728-33.783l-73.495 56.696-73.495-56.696c-15.355-11.845-36.767-11.845-52.122 0l-73.495 56.696-73.495-56.696c-15.355-11.845-36.767-11.845-52.122 0l-73.495 56.696-73.495-56.696zM256 723.866v-594.398l30.828 23.782c15.355 11.845 36.767 11.845 52.122 0l73.495-56.696 73.495 56.696c15.355 11.845 36.767 11.845 52.122 0l73.495-56.696 73.495 56.696c15.355 11.845 36.767 11.845 52.122 0l30.828-23.782v594.398l-30.828-23.782c-15.355-11.845-36.767-11.845-52.122 0l-73.495 56.696-73.495-56.696c-15.355-11.845-36.767-11.845-52.122 0l-73.495 56.696-73.495-56.696c-15.355-11.845-36.767-11.845-52.122 0l-30.828 23.782z" />
<glyph unicode="&#xe90c;" d="M469.333 469.334c23.564 0 42.667-19.103 42.667-42.667s-19.103-42.667-42.667-42.667h-85.333c-23.564 0-42.667 19.103-42.667 42.667s19.103 42.667 42.667 42.667h85.333zM640 597.334c23.564 0 42.667-19.103 42.667-42.667s-19.103-42.667-42.667-42.667h-256c-23.564 0-42.667 19.103-42.667 42.667s19.103 42.667 42.667 42.667h256z" />
<glyph unicode="&#xe90d;" d="M320 298.667h-85.333v256h-106.667c-23.564 0-42.667 19.103-42.667 42.667v213.333c0 23.564 19.103 42.667 42.667 42.667h298.667c23.564 0 42.667-19.103 42.667-42.667v-213.333c0-23.564-19.103-42.667-42.667-42.667h-106.667v-85.333h426.667c23.564 0 42.667-19.103 42.667-42.667v0-170.667c0-23.564-19.103-42.667-42.667-42.667s-42.667 19.103-42.667 42.667v0 128h-384v-85.333zM384 768h-213.333v-128h213.333v128z" />
<glyph unicode="&#xe90e;" d="M426.667 298.667c23.564 0 42.667-19.103 42.667-42.667v-213.333c0-23.564-19.103-42.667-42.667-42.667h-298.667c-23.564 0-42.667 19.103-42.667 42.667v213.333c0 23.564 19.103 42.667 42.667 42.667h298.667zM896 298.667c23.564 0 42.667-19.103 42.667-42.667v-213.333c0-23.564-19.103-42.667-42.667-42.667h-298.667c-23.564 0-42.667 19.103-42.667 42.667v213.333c0 23.564 19.103 42.667 42.667 42.667h298.667zM384 213.334h-213.333v-128h213.333v128zM853.333 213.334h-213.333v-128h213.333v128z" />
<glyph unicode="&#xe90f;" d="M725.333 853.334c23.564 0 42.667-19.103 42.667-42.667v-42.667h128c23.564 0 42.667-19.103 42.667-42.667v-682.667c0-23.564-19.103-42.667-42.667-42.667h-768c-23.564 0-42.667 19.103-42.667 42.667v682.667c0 23.564 19.103 42.667 42.667 42.667h128v42.667c0 23.564 19.103 42.667 42.667 42.667s42.667-19.103 42.667-42.667v-42.667h341.333v42.667c0 23.564 19.103 42.667 42.667 42.667zM853.333 426.667h-682.667v-341.333h682.667v341.333zM256 682.667h-85.333v-170.667h682.667v170.667h-85.333v-42.667c0-23.564-19.103-42.667-42.667-42.667s-42.667 19.103-42.667 42.667v42.667h-341.333v-42.667c0-23.564-19.103-42.667-42.667-42.667s-42.667 19.103-42.667 42.667v42.667z" />
<glyph unicode="&#xe910;" d="M298.667 341.334c23.564 0 42.667-19.103 42.667-42.667v-85.333c0-23.564-19.103-42.667-42.667-42.667s-42.667 19.103-42.667 42.667v85.333c0 23.564 19.103 42.667 42.667 42.667zM512 341.334c23.564 0 42.667-19.103 42.667-42.667v-85.333c0-23.564-19.103-42.667-42.667-42.667s-42.667 19.103-42.667 42.667v85.333c0 23.564 19.103 42.667 42.667 42.667zM725.333 341.334c23.564 0 42.667-19.103 42.667-42.667v-85.333c0-23.564-19.103-42.667-42.667-42.667s-42.667 19.103-42.667 42.667v85.333c0 23.564 19.103 42.667 42.667 42.667z" />
<glyph unicode="&#xe911;" glyph-name="cancel" d="M227.551 755.504c16.662 16.662 43.677 16.662 60.34 0l249.069-249.093 249.135 249.093c16.666 16.662 43.678 16.662 60.339 0l1.724-1.721c16.661-16.662 16.661-43.677 0-60.34l-249.118-249.069 249.118-249.135c15.381-15.381 16.563-39.582 3.55-56.32l-3.55-4.019-1.724-1.724c-16.661-16.661-43.674-16.661-60.339 0l-249.135 249.118-249.069-249.118c-16.663-16.661-43.677-16.661-60.34 0l-1.721 1.724c-16.662 16.661-16.662 43.674 0 60.339l249.093 249.135-249.093 249.069c-15.38 15.381-16.564 39.583-3.549 56.32l3.549 4.019 1.721 1.721z" />
<glyph unicode="&#xe912;" d="M512-0c235.641 0 426.667 191.025 426.667 426.667s-191.025 426.667-426.667 426.667c-235.641 0-426.667-191.025-426.667-426.667s191.025-426.667 426.667-426.667zM512 85.334c-188.513 0-341.333 152.82-341.333 341.333s152.82 341.333 341.333 341.333c188.513 0 341.333-152.82 341.333-341.333s-152.82-341.333-341.333-341.333z" />
<glyph unicode="&#xe913;" d="M938.667 426.667c0-235.641-191.025-426.667-426.667-426.667s-426.667 191.025-426.667 426.667c0 235.641 191.025 426.667 426.667 426.667s426.667-191.025 426.667-426.667z" />
<glyph unicode="&#xe914;" d="M361.151 577.516c16.662 16.662 43.677 16.662 60.34 0v0l90.491-90.458 90.528 90.458c16.662 16.662 43.677 16.662 60.34 0s16.662-43.677 0-60.34l-90.537-90.491 90.537-90.528c15.381-15.381 16.564-39.583 3.549-56.32l-3.549-4.020c-16.662-16.662-43.677-16.662-60.34 0v0l-90.528 90.537-90.491-90.537c-16.662-16.662-43.677-16.662-60.34 0s-16.662 43.677 0 60.34l90.458 90.528-90.458 90.491c-15.381 15.381-16.564 39.583-3.549 56.32z" />
<glyph unicode="&#xe915;" d="M512-0c235.641 0 426.667 191.025 426.667 426.667s-191.025 426.667-426.667 426.667c-235.641 0-426.667-191.025-426.667-426.667s191.025-426.667 426.667-426.667zM512 85.334c-188.513 0-341.333 152.82-341.333 341.333s152.82 341.333 341.333 341.333c188.513 0 341.333-152.82 341.333-341.333s-152.82-341.333-341.333-341.333z" />
<glyph unicode="&#xe916;" d="M361.151 577.516c16.662 16.662 43.677 16.662 60.34 0v0l90.491-90.458 90.528 90.458c16.662 16.662 43.677 16.662 60.34 0s16.662-43.677 0-60.34l-90.537-90.491 90.537-90.528c15.381-15.381 16.564-39.583 3.549-56.32l-3.549-4.020c-16.662-16.662-43.677-16.662-60.34 0v0l-90.528 90.537-90.491-90.537c-16.662-16.662-43.677-16.662-60.34 0s-16.662 43.677 0 60.34l90.458 90.528-90.458 90.491c-15.381 15.381-16.564 39.583-3.549 56.32z" />
<glyph unicode="&#xe917;" d="M128 256c-23.564 0-42.667 19.103-42.667 42.667v426.667c0 23.564 19.103 42.667 42.667 42.667h768c23.564 0 42.667-19.103 42.667-42.667v-426.667c0-23.564-19.103-42.667-42.667-42.667h-768zM170.687 372.572l-0.021-31.239 31.258-0.013c-7.49 12.954-18.287 23.756-31.237 31.252zM730.718 682.635h-437.437c-15.442-59.946-62.636-107.141-122.582-122.582v-96.104c59.961-15.445 107.163-62.659 122.593-122.625h437.415c15.434 59.981 62.655 107.202 122.636 122.636v96.081c-59.967 15.43-107.18 62.633-122.625 122.593zM853.354 372.596c-12.969-7.497-23.781-18.308-31.279-31.276l31.258 0.013zM201.901 682.638l-31.234 0.029 0.021-31.239c12.936 7.488 23.724 18.275 31.213 31.21zM853.333 682.667l-31.234-0.029c7.497-12.949 18.3-23.745 31.255-31.234l-0.021 31.263z" />
<glyph unicode="&#xe918;" d="M896 170.667c23.564 0 42.667-19.103 42.667-42.667s-19.103-42.667-42.667-42.667h-768c-23.564 0-42.667 19.103-42.667 42.667s19.103 42.667 42.667 42.667h768zM512 640c70.692 0 128-57.308 128-128s-57.308-128-128-128c-70.692 0-128 57.308-128 128s57.308 128 128 128zM512 554.667c-23.564 0-42.667-19.103-42.667-42.667s19.103-42.667 42.667-42.667c23.564 0 42.667 19.103 42.667 42.667s-19.103 42.667-42.667 42.667z" />
<glyph unicode="&#xe919;" d="M554.667 810.667c0 23.564 19.103 42.667 42.667 42.667 188.513 0 341.333-152.82 341.333-341.333 0-23.564-19.103-42.667-42.667-42.667h-298.667c-23.564 0-42.667 19.103-42.667 42.667v298.667zM640 764.461v-209.794h209.794c-17.405 103.742-97.204 186.327-199.492 207.847l-10.302 1.947z" />
<glyph unicode="&#xe91a;" d="M512 426.667v298.667c0 23.564-19.103 42.667-42.667 42.667-212.077 0-384-171.923-384-384s171.923-384 384-384c212.077 0 384 171.923 384 384 0 23.564-19.103 42.667-42.667 42.667h-298.667zM426.667 384c0-23.564 19.103-42.667 42.667-42.667h295.642c-20.703-144.738-145.179-256-295.642-256-164.949 0-298.667 133.718-298.667 298.667 0 146.964 106.147 269.135 245.957 294.030l10.043 1.612v-295.642z" />
<glyph unicode="&#xe91b;" d="M938.667 426.667c0-235.641-191.025-426.667-426.667-426.667s-426.667 191.025-426.667 426.667c0 235.641 191.025 426.667 426.667 426.667s426.667-191.025 426.667-426.667z" />
<glyph unicode="&#xe91c;" d="M372.067 426.724c-16.345 16.974-43.355 17.483-60.329 1.138s-17.483-43.355-1.138-60.329l94.815-98.462c16.783-17.428 44.684-17.428 61.467 0l246.519 256c16.345 16.974 15.835 43.984-1.138 60.329s-43.984 15.835-60.329-1.138l-215.785-224.084-64.081 66.546z" />
<glyph unicode="&#xe91d;" d="M372.067 426.724c-16.345 16.974-43.355 17.483-60.329 1.138s-17.483-43.355-1.138-60.329l94.815-98.462c16.783-17.428 44.684-17.428 61.467 0l246.519 256c16.345 16.974 15.835 43.984-1.138 60.329s-43.984 15.835-60.329-1.138l-215.785-224.084-64.081 66.546z" />
<glyph unicode="&#xe91e;" d="M512-0c235.641 0 426.667 191.025 426.667 426.667s-191.025 426.667-426.667 426.667c-235.641 0-426.667-191.025-426.667-426.667s191.025-426.667 426.667-426.667zM512 85.334c-188.513 0-341.333 152.82-341.333 341.333s152.82 341.333 341.333 341.333c188.513 0 341.333-152.82 341.333-341.333s-152.82-341.333-341.333-341.333z" />
<glyph unicode="&#xe91f;" glyph-name="check" d="M243.336 407.772c-16.754 16.57-43.769 16.421-60.339-0.333s-16.421-43.769 0.333-60.339l165.926-164.103c16.623-16.441 43.382-16.441 60.005 0l431.407 426.667c16.754 16.57 16.903 43.585 0.333 60.339s-43.585 16.903-60.339 0.333l-401.405-396.994-135.923 134.43z" />
<glyph unicode="&#xe920;" d="M768 320c23.564 0 42.667-19.103 42.667-42.667v-42.667c0-23.564-19.103-42.667-42.667-42.667s-42.667 19.103-42.667 42.667v42.667c0 23.564 19.103 42.667 42.667 42.667zM768 490.667c23.564 0 42.667-19.103 42.667-42.667v-42.667c0-23.564-19.103-42.667-42.667-42.667s-42.667 19.103-42.667 42.667v42.667c0 23.564 19.103 42.667 42.667 42.667zM298.667 533.334c23.564 0 42.667-19.103 42.667-42.667v-42.667c0-23.564-19.103-42.667-42.667-42.667s-42.667 19.103-42.667 42.667v42.667c0 23.564 19.103 42.667 42.667 42.667zM469.333 533.334c23.564 0 42.667-19.103 42.667-42.667v-42.667c0-23.564-19.103-42.667-42.667-42.667s-42.667 19.103-42.667 42.667v42.667c0 23.564 19.103 42.667 42.667 42.667zM298.667 704c23.564 0 42.667-19.103 42.667-42.667v-42.667c0-23.564-19.103-42.667-42.667-42.667s-42.667 19.103-42.667 42.667v42.667c0 23.564 19.103 42.667 42.667 42.667zM469.333 704c23.564 0 42.667-19.103 42.667-42.667v-42.667c0-23.564-19.103-42.667-42.667-42.667s-42.667 19.103-42.667 42.667v42.667c0 23.564 19.103 42.667 42.667 42.667z" />
<glyph unicode="&#xe921;" d="M469.333-0c-23.564 0-42.667 19.103-42.667 42.667v0 213.333h-85.333v-213.333c0-23.564-19.103-42.667-42.667-42.667v0h-170.667c-23.564 0-42.667 19.103-42.667 42.667v0 768c0 23.564 19.103 42.667 42.667 42.667v0h512c23.564 0 42.667-19.103 42.667-42.667v0-170.667h213.333c23.564 0 42.667-19.103 42.667-42.667v-554.667c0-23.564-19.103-42.667-42.667-42.667zM597.333 768h-426.667v-682.667h85.333v213.333c0 21.881 16.471 39.915 37.691 42.38l4.976 0.287h170.667c23.564 0 42.667-19.103 42.667-42.667v0-213.333h85.333v682.667zM853.333 554.667h-170.667v-469.333h170.667v469.333z" />
<glyph unicode="&#xe922;" d="M896 853.334c23.564 0 42.667-19.103 42.667-42.667v-768c0-23.564-19.103-42.667-42.667-42.667h-682.667c-23.564 0-42.667 19.103-42.667 42.667v85.333h-42.667c-23.564 0-42.667 19.103-42.667 42.667s19.103 42.667 42.667 42.667h42.667v170.667h-42.667c-23.564 0-42.667 19.103-42.667 42.667s19.103 42.667 42.667 42.667h42.667v170.667h-42.667c-23.564 0-42.667 19.103-42.667 42.667s19.103 42.667 42.667 42.667h42.667v85.333c0 23.564 19.103 42.667 42.667 42.667h682.667zM853.333 768h-597.333v-42.667c23.564 0 42.667-19.103 42.667-42.667s-19.103-42.667-42.667-42.667v-170.667c23.564 0 42.667-19.103 42.667-42.667s-19.103-42.667-42.667-42.667v-170.667c23.564 0 42.667-19.103 42.667-42.667s-19.103-42.667-42.667-42.667v-42.667h597.333v682.667z" />
<glyph unicode="&#xe923;" d="M640 384c70.692 0 128-57.308 128-128v0-42.667c0-23.564-19.103-42.667-42.667-42.667s-42.667 19.103-42.667 42.667v0 42.667c0 23.564-19.103 42.667-42.667 42.667v0h-128c-23.564 0-42.667-19.103-42.667-42.667v0-42.667c0-23.564-19.103-42.667-42.667-42.667s-42.667 19.103-42.667 42.667v0 42.667c0 70.692 57.308 128 128 128v0zM576 682.667c70.692 0 128-57.308 128-128s-57.308-128-128-128c-70.692 0-128 57.308-128 128s57.308 128 128 128zM576 597.334c-23.564 0-42.667-19.103-42.667-42.667s19.103-42.667 42.667-42.667c23.564 0 42.667 19.103 42.667 42.667s-19.103 42.667-42.667 42.667z" />
<glyph unicode="&#xe924;" d="M682.667 853.334c11.316 0 22.168-4.495 30.17-12.497l128-128c8.002-8.002 12.497-18.854 12.497-30.17v-469.333c0-23.564-19.103-42.667-42.667-42.667h-426.667c-23.564 0-42.667 19.103-42.667 42.667v597.333c0 23.564 19.103 42.667 42.667 42.667h298.667zM597.333 768h-170.667v-512h341.333v341.333h-128c-21.881 0-39.915 16.471-42.38 37.691l-0.287 4.976v128zM750.336 682.667l-67.669 67.627v-67.627h67.669z" />
<glyph unicode="&#xe925;" d="M256 85.334v640c0 23.564-19.103 42.667-42.667 42.667s-42.667-19.103-42.667-42.667v-682.667c0-23.564 19.103-42.667 42.667-42.667h512c23.564 0 42.667 19.103 42.667 42.667s-19.103 42.667-42.667 42.667h-469.333z" />
<glyph unicode="&#xe926;" d="M896 597.334v-85.333h-469.333v-469.333h-85.333v469.333h-213.333v85.333h768z" />
<glyph unicode="&#xe927;" d="M85.333 810.667c0 23.564 19.103 42.667 42.667 42.667h768c23.564 0 42.667-19.103 42.667-42.667v-768c0-23.564-19.103-42.667-42.667-42.667h-768c-23.564 0-42.667 19.103-42.667 42.667v768zM170.667 768v-682.667h682.667v682.667h-682.667z" />
<glyph unicode="&#xe928;" d="M640 853.334c23.564 0 42.667-19.103 42.667-42.667v-128h213.333c23.564 0 42.667-19.103 42.667-42.667s-19.103-42.667-42.667-42.667h-85.333v-554.667c0-23.564-19.103-42.667-42.667-42.667h-512c-23.564 0-42.667 19.103-42.667 42.667v554.667h-85.333c-23.564 0-42.667 19.103-42.667 42.667s19.103 42.667 42.667 42.667h213.333v128c0 23.564 19.103 42.667 42.667 42.667h256zM725.333 597.334h-426.667v-512h426.667v512zM597.333 768h-170.667v-85.333h170.667v85.333z" />
<glyph unicode="&#xe929;" d="M426.667 512c23.564 0 42.667-19.103 42.667-42.667v-256c0-23.564-19.103-42.667-42.667-42.667s-42.667 19.103-42.667 42.667v256c0 23.564 19.103 42.667 42.667 42.667zM597.333 512c23.564 0 42.667-19.103 42.667-42.667v-256c0-23.564-19.103-42.667-42.667-42.667s-42.667 19.103-42.667 42.667v256c0 23.564 19.103 42.667 42.667 42.667z" />
<glyph unicode="&#xe92a;" d="M469.333 853.334c23.564 0 42.667-19.103 42.667-42.667v-426.667c0-23.564-19.103-42.667-42.667-42.667h-341.333c-23.564 0-42.667 19.103-42.667 42.667v426.667c0 23.564 19.103 42.667 42.667 42.667h341.333zM426.667 768h-256v-341.333h256v341.333z" />
<glyph unicode="&#xe92b;" d="M768 768c14.987 0 28.876-7.863 36.586-20.715v0l128-213.333c4.135-6.891 6.097-14.481 6.087-21.972l-0.006 0.020v-298.667c0-57.753-38.249-106.573-90.797-122.51-15.964-52.575-64.783-90.824-122.536-90.824-55.718 0-103.12 35.6-120.703 85.295h-185.261c-17.583-49.695-64.985-85.295-120.703-85.295-57.753 0-106.573 38.249-122.51 90.797-52.575 15.964-90.824 64.783-90.824 122.536v0 213.333h426.667v298.667c0 23.564 19.103 42.667 42.667 42.667v0zM298.667 170.667c-23.564 0-42.667-19.103-42.667-42.667s19.103-42.667 42.667-42.667c23.564 0 42.667 19.103 42.667 42.667s-19.103 42.667-42.667 42.667zM725.333 170.667c-23.564 0-42.667-19.103-42.667-42.667s19.103-42.667 42.667-42.667c23.564 0 42.667 19.103 42.667 42.667s-19.103 42.667-42.667 42.667zM853.333 426.667h-256v-256l7.282-0.004c17.571 49.717 64.984 85.337 120.718 85.337 50.495 0 94.16-29.239 114.99-71.709l0.513-1.128c7.721 7.721 12.497 18.388 12.497 30.17v0 42.667h-21.333c-11.782 0-21.333 9.551-21.333 21.333v42.667c0 11.782 9.551 21.333 21.333 21.333h21.333v85.333zM512 341.334h-341.333v-128c0-11.782 4.776-22.449 12.497-30.17l0.513 1.128c20.83 42.47 64.495 71.709 114.99 71.709 55.733 0 103.147-35.62 120.718-85.337l92.615 0.004v170.667zM743.843 682.667h-146.509v-170.667h248.917l-102.408 170.667z" />
<glyph unicode="&#xe92c;" d="M768 853.334c23.564 0 42.667-19.103 42.667-42.667v0-341.333c0-23.564-19.103-42.667-42.667-42.667s-42.667 19.103-42.667 42.667v0 298.667h-426.667v-180.148c0-23.564-19.103-42.667-42.667-42.667s-42.667 19.103-42.667 42.667v0 222.815c0 23.564 19.103 42.667 42.667 42.667v0zM597.333 682.667c23.564 0 42.667-19.103 42.667-42.667s-19.103-42.667-42.667-42.667h-170.667c-23.564 0-42.667 19.103-42.667 42.667s19.103 42.667 42.667 42.667h170.667z" />
<glyph unicode="&#xe92d;" d="M488.957 497.778h407.043c23.564 0 42.667-19.103 42.667-42.667v-412.444c0-23.564-19.103-42.667-42.667-42.667h-768c-23.564 0-42.667 19.103-42.667 42.667v512c0 23.564 19.103 42.667 42.667 42.667h256c12.455 0 24.289-5.443 32.395-14.9l72.562-84.656zM364.376 512h-193.709v-426.667h682.667v327.111h-384c-12.455 0-24.289 5.443-32.395 14.9l-72.562 84.656z" />
<glyph unicode="&#xe92e;" d="M512 853.334c23.564 0 42.667-19.103 42.667-42.667v-408.96l140.497 140.463c16.662 16.662 43.677 16.662 60.34 0s16.662-43.677 0-60.34l-213.333-213.333c-1.215-1.215-2.502-2.356-3.855-3.418l3.855 3.418c-1.51-1.51-3.105-2.883-4.77-4.12-1.032-0.761-2.092-1.477-3.185-2.145-0.514-0.318-1.035-0.622-1.562-0.913-0.843-0.464-1.714-0.909-2.601-1.323-0.725-0.34-1.464-0.66-2.209-0.957-0.843-0.337-1.687-0.644-2.543-0.925-0.635-0.206-1.292-0.403-1.952-0.585-0.92-0.256-1.845-0.478-2.782-0.669-0.743-0.148-1.487-0.279-2.233-0.39-0.868-0.133-1.767-0.238-2.673-0.315-0.763-0.063-1.503-0.107-2.243-0.131-0.463-0.016-0.94-0.023-1.419-0.023l-1.376 0.022c-0.769 0.025-1.536 0.070-2.303 0.136l3.679-0.158c-2.16 0-4.282 0.16-6.356 0.47-0.725 0.111-1.468 0.242-2.209 0.393-0.94 0.188-1.865 0.409-2.778 0.661-0.667 0.187-1.323 0.384-1.976 0.598-0.839 0.272-1.683 0.579-2.514 0.912-0.757 0.303-1.495 0.622-2.226 0.963-0.882 0.414-1.752 0.858-2.605 1.331-0.517 0.283-1.038 0.586-1.554 0.901-1.091 0.671-2.151 1.386-3.177 2.147-0.318 0.232-0.626 0.468-0.933 0.709-1.342 1.056-2.629 2.197-3.844 3.412l-213.333 213.333c-16.662 16.662-16.662 43.677 0 60.34s43.677 16.662 60.34 0l140.497-140.463v408.96c0 23.564 19.103 42.667 42.667 42.667z" />
<glyph unicode="&#xe92f;" d="M853.333 85.334h-682.667v298.667c0 23.564-19.103 42.667-42.667 42.667s-42.667-19.103-42.667-42.667v-341.333c0-23.564 19.103-42.667 42.667-42.667h768c23.564 0 42.667 19.103 42.667 42.667v341.333c0 23.564-19.103 42.667-42.667 42.667s-42.667-19.103-42.667-42.667v-298.667z" />
<glyph unicode="&#xe930;" d="M128 85.334h768c23.564 0 42.667-19.103 42.667-42.667s-19.103-42.667-42.667-42.667h-768c-23.564 0-42.667 19.103-42.667 42.667s19.103 42.667 42.667 42.667z" />
<glyph unicode="&#xe931;" d="M592.601 837.621c16.662 16.662 43.677 16.662 60.34 0l120.68-120.68c16.662-16.662 16.662-43.677 0-60.34l-485.894-485.894c-8.284-8.284-19.611-12.798-31.323-12.481l-117.504 3.176c-22.66 0.612-40.886 18.838-41.498 41.498l-3.176 117.504c-0.317 11.712 4.197 23.038 12.481 31.323l485.894 485.894zM622.771 747.111l-442.747-442.747 1.588-58.752 58.752-1.588 442.747 442.747-60.34 60.34z" />
<glyph unicode="&#xe932;" d="M597.333 341.334c141.385 0 256-114.615 256-256v0-42.667c0-23.564-19.103-42.667-42.667-42.667s-42.667 19.103-42.667 42.667v0 42.667c0 94.257-76.41 170.667-170.667 170.667v0h-170.667c-94.257 0-170.667-76.41-170.667-170.667v0-42.667c0-23.564-19.103-42.667-42.667-42.667s-42.667 19.103-42.667 42.667v0 42.667c0 141.385 114.615 256 256 256v0zM512 853.334c129.603 0 234.667-105.064 234.667-234.667s-105.064-234.667-234.667-234.667c-129.603 0-234.667 105.064-234.667 234.667s105.064 234.667 234.667 234.667zM512 768c-82.475 0-149.333-66.859-149.333-149.333s66.859-149.333 149.333-149.333c82.475 0 149.333 66.859 149.333 149.333s-66.859 149.333-149.333 149.333z" />
<glyph unicode="&#xe933;" d="M554.667 341.334l23.947-71.841c7.102-21.305-3.538-44.253-23.904-52.811l-0.042-174.015c0-23.564-19.103-42.667-42.667-42.667s-42.667 19.103-42.667 42.667l-0.035 174.002c-15.337 6.467-26.102 21.642-26.102 39.332 0 4.586 0.739 9.142 2.19 13.492l23.947 71.841h85.333z" />
<glyph unicode="&#xe934;" d="M481.83 414.17c16.662 16.662 43.677 16.662 60.34 0v0l85.333-85.333c16.662-16.662 16.662-43.677 0-60.34s-43.677-16.662-60.34 0v0l-12.497 12.463v-110.293c0-23.564-19.103-42.667-42.667-42.667s-42.667 19.103-42.667 42.667v110.336l-12.497-12.506c-15.381-15.381-39.583-16.564-56.32-3.549l-4.020 3.549c-16.662 16.662-16.662 43.677 0 60.34v0z" />
<glyph unicode="&#xe935;" d="M768 853.334c13.43 0 26.076-6.323 34.133-17.067v0l128-170.667c0.358-0.478 0.705-0.959 1.039-1.443 0.378-0.547 0.737-1.096 1.084-1.653 4.844-7.703 6.827-16.145 6.441-24.318l-0.030-595.519c0-23.564-19.103-42.667-42.667-42.667v0h-768c-23.564 0-42.667 19.103-42.667 42.667v0 597.333l-0.070 0.964c0.159 8.4 2.85 16.965 8.603 24.636l-2.301-3.385c0.466 0.762 0.955 1.508 1.466 2.238l0.835 1.147 128 170.667c8.058 10.744 20.704 17.067 34.133 17.067v0zM640 512c0-23.564-19.103-42.667-42.667-42.667h-170.667c-23.564 0-42.667 19.103-42.667 42.667l-0.027 85.333h-213.333l0.027-512h682.667l-0.027 512h-213.333l0.027-85.333zM512 761.076l-42.667-128v-78.409h85.333v78.409l-42.667 128zM746.667 768h-147.057l28.459-85.333h182.598l-64 85.333zM395.877 682.667l28.459 85.333h-147.002l-64-85.333h182.543z" />
<glyph unicode="&#xe936;" d="M297.457 666.169l62.865-62.861c-38.085-19.442-73.455-46.114-106.152-78.811-25.879-25.879-48.146-53.712-66.669-81.497l-7.326-11.277c-1.107-1.752-2.157-3.439-3.15-5.055l3.15-5.055 7.326-11.277c18.523-27.785 40.79-55.618 66.669-81.497 72.609-72.609 158.397-115.503 257.83-115.503 67.328 0 128.399 19.666 183.359 54.907l61.533-61.538c-71.577-49.972-153.27-78.703-244.893-78.703-124.567 0-230.779 53.106-318.17 140.497-30.121 30.121-55.854 62.288-77.331 94.503-9.779 14.669-17.213 27.066-22.324 36.359l-4.338 8.227c-6.006 12.012-6.006 26.15 0 38.162l4.338 8.227c3.407 6.195 7.847 13.77 13.325 22.478l8.998 13.881c21.477 32.215 47.21 64.382 77.331 94.503 32.023 32.023 66.573 59.442 103.627 81.332zM512 725.334c124.567 0 230.779-53.106 318.17-140.497 30.121-30.121 55.854-62.288 77.331-94.503 9.779-14.669 17.213-27.066 22.324-36.359l4.338-8.227c6.006-12.012 6.006-26.15 0-38.162l-4.338-8.227c-3.407-6.195-7.847-13.77-13.325-22.478l-8.998-13.881c-21.477-32.215-47.21-64.382-77.331-94.503l-7.258-7.078-60.318 60.322c2.427 2.332 4.839 4.698 7.236 7.096 21.566 21.566 40.623 44.489 57.096 67.61l13.406 19.713 6.642 10.507-3.15 5.055-7.326 11.277c-18.523 27.785-40.79 55.618-66.669 81.497-72.609 72.609-158.397 115.503-257.83 115.503-21.258 0-41.892-1.96-61.906-5.753l-69.881 69.869c41.356 13.818 85.293 21.217 131.787 21.217zM419.656 544.033l61.357-61.355c-19.686-10.915-33.012-31.907-33.012-56.011 0-35.346 28.654-64 64-64 24.105 0 45.097 13.326 56.011 33.012l61.355-61.357c-27.345-34.706-69.753-56.989-117.366-56.989-82.475 0-149.333 66.859-149.333 149.333 0 47.613 22.283 90.021 56.989 117.366zM512 576c82.475 0 149.333-66.859 149.333-149.333l-0.128-3.584-152.785 152.875c1.19 0.028 2.383 0.042 3.58 0.042z" />
<glyph unicode="&#xe937;" d="M149.961 788.706c-16.662-16.662-16.662-43.677 0-60.34l663.738-663.738c16.662-16.662 43.677-16.662 60.34 0s16.662 43.677 0 60.34l-663.738 663.738c-16.662 16.662-43.677 16.662-60.34 0z" />
<glyph unicode="&#xe938;" d="M89.838 407.586c-6.006 12.012-6.006 26.15 0 38.162l4.338 8.227c3.407 6.195 7.847 13.77 13.325 22.478l8.998 13.881c21.477 32.215 47.21 64.382 77.331 94.503 87.391 87.391 193.603 140.497 318.17 140.497s230.779-53.106 318.17-140.497c30.121-30.121 55.854-62.288 77.331-94.503 9.779-14.669 17.213-27.066 22.324-36.359l4.338-8.227c6.006-12.012 6.006-26.15 0-38.162l-4.338-8.227c-3.407-6.195-7.847-13.77-13.325-22.478l-8.998-13.881c-21.477-32.215-47.21-64.382-77.331-94.503-87.391-87.391-193.603-140.497-318.17-140.497s-230.779 53.106-318.17 140.497c-30.121 30.121-55.854 62.288-77.331 94.503-9.779 14.669-17.213 27.066-22.324 36.359l-4.338 8.227zM177.025 426.667l3.15-5.055 7.326-11.277c18.523-27.785 40.79-55.618 66.669-81.497 72.609-72.609 158.397-115.503 257.83-115.503s185.221 42.894 257.83 115.503c21.566 21.566 40.623 44.489 57.096 67.61l13.406 19.713 6.642 10.507-3.15 5.055-7.326 11.277c-18.523 27.785-40.79 55.618-66.669 81.497-72.609 72.609-158.397 115.503-257.83 115.503s-185.221-42.894-257.83-115.503c-25.879-25.879-48.146-53.712-66.669-81.497l-7.326-11.277c-1.107-1.752-2.157-3.439-3.15-5.055z" />
<glyph unicode="&#xe939;" d="M512 277.334c82.475 0 149.333 66.859 149.333 149.333s-66.859 149.333-149.333 149.333c-82.475 0-149.333-66.859-149.333-149.333s66.859-149.333 149.333-149.333zM512 362.667c-35.346 0-64 28.654-64 64s28.654 64 64 64c35.346 0 64-28.654 64-64s-28.654-64-64-64z" />
<glyph unicode="&#xe93a;" d="M298.667 682.667c23.564 0 42.667-19.103 42.667-42.667h42.667c23.564 0 42.667-19.103 42.667-42.667s-19.103-42.667-42.667-42.667v0h-42.667v-426.667h512v426.667h-42.667c-23.564 0-42.667 19.103-42.667 42.667s19.103 42.667 42.667 42.667v0h85.333c23.564 0 42.667-19.103 42.667-42.667v0-512c0-23.564-19.103-42.667-42.667-42.667v0h-554.667c0-23.564-19.103-42.667-42.667-42.667h-170.667c-23.564 0-42.667 19.103-42.667 42.667v597.333c0 23.564 19.103 42.667 42.667 42.667h170.667zM256 597.334h-85.333v-512h85.333v512zM725.333 298.667c23.564 0 42.667-19.103 42.667-42.667s-19.103-42.667-42.667-42.667h-256c-23.564 0-42.667 19.103-42.667 42.667s19.103 42.667 42.667 42.667h256z" />
<glyph unicode="&#xe93b;" d="M384 810.667c0 23.564 19.103 42.667 42.667 42.667h227.556c10.84 0 21.273-4.126 29.181-11.54l113.778-106.667c8.604-8.066 13.485-19.333 13.485-31.127v-277.333c0-23.564-19.103-42.667-42.667-42.667h-341.333c-23.564 0-42.667 19.103-42.667 42.667v384zM469.333 768v-298.667h256v216.182l-87.984 82.485h-168.016z" />
<glyph unicode="&#xe93c;" d="M469.333 231.007v280.994c0 23.564-19.103 42.667-42.667 42.667s-42.667-19.103-42.667-42.667v-298.667c0-11.316 4.495-22.168 12.497-30.17l170.667-170.667c26.879-26.878 72.837-7.842 72.837 30.17v469.333c0 23.564-19.103 42.667-42.667 42.667s-42.667-19.103-42.667-42.667v-366.327l-85.333 85.333z" />
<glyph unicode="&#xe93d;" d="M896 853.334l0.811-0.008c0.996-0.019 1.992-0.072 2.986-0.161l-3.797 0.168c2.16 0 4.282-0.16 6.356-0.47 0.732-0.112 1.472-0.243 2.209-0.393 0.94-0.188 1.865-0.409 2.778-0.661 0.667-0.187 1.323-0.384 1.976-0.598 0.839-0.272 1.683-0.579 2.514-0.912 0.757-0.303 1.495-0.622 2.226-0.963 0.799-0.375 1.59-0.776 2.366-1.2 0.634-0.342 1.284-0.718 1.925-1.113 0.86-0.535 1.675-1.078 2.47-1.647 0.504-0.357 1.010-0.737 1.51-1.129 2.695-2.118 5.137-4.561 7.26-7.266l-3.418 3.855c1.51-1.51 2.883-3.105 4.12-4.77 0.761-1.032 1.477-2.092 2.145-3.185 0.276-0.445 0.541-0.897 0.796-1.352 0.582-1.043 1.131-2.125 1.635-3.233 0.176-0.385 0.343-0.768 0.503-1.152 0.452-1.079 0.861-2.181 1.225-3.304 0.19-0.596 0.374-1.209 0.543-1.825 0.256-0.92 0.478-1.845 0.669-2.782 0.148-0.743 0.279-1.487 0.39-2.233 0.124-0.809 0.224-1.648 0.3-2.493 0.091-1.040 0.145-2.049 0.163-3.058 0.005-0.237 0.007-0.51 0.007-0.783l-0.008-0.826c-0.019-0.995-0.073-1.99-0.161-2.982l0.169 3.808c0-2.16-0.16-4.282-0.47-6.356-0.111-0.725-0.242-1.468-0.393-2.209-0.188-0.94-0.409-1.865-0.661-2.778-0.175-0.623-0.358-1.236-0.556-1.846-0.357-1.108-0.766-2.211-1.219-3.291-0.16-0.383-0.327-0.766-0.499-1.146-0.507-1.113-1.056-2.195-1.649-3.249-0.245-0.443-0.509-0.895-0.783-1.342-0.671-1.091-1.386-2.151-2.147-3.177-0.232-0.318-0.468-0.626-0.709-0.933-0.091-0.113-0.19-0.236-0.288-0.36l-3.123-3.484-298.667-298.667c-16.662-16.662-43.677-16.662-60.34 0s-16.662 43.677 0 60.34l225.761 225.83h-561.92l225.832-225.83c15.381-15.381 16.564-39.583 3.549-56.32l-3.549-4.020c-16.662-16.662-43.677-16.662-60.34 0v0l-298.667 298.667-3.123 3.484c-0.099 0.123-0.197 0.247-0.295 0.371-0.235 0.295-0.471 0.604-0.702 0.915-0.761 1.032-1.477 2.092-2.145 3.185-0.318 0.514-0.622 1.035-0.913 1.562-0.464 0.843-0.909 1.714-1.323 2.601-0.34 0.725-0.66 1.464-0.957 2.209-0.337 0.843-0.644 1.687-0.925 2.543-0.206 0.635-0.403 1.292-0.585 1.952-0.256 0.92-0.478 1.845-0.669 2.782-0.148 0.743-0.279 1.487-0.39 2.233-0.124 0.813-0.225 1.654-0.3 2.503-0.089 1.016-0.143 2.010-0.162 3.006-0.005 0.275-0.008 0.55-0.008 0.826l0.007 0.783c0.018 1.009 0.072 2.018 0.162 3.025l-0.169-3.808c0 2.16 0.16 4.282 0.47 6.356 0.111 0.725 0.242 1.468 0.393 2.209 0.188 0.94 0.409 1.865 0.661 2.778 0.187 0.667 0.384 1.323 0.598 1.976 0.272 0.839 0.579 1.683 0.912 2.514 0.303 0.757 0.622 1.495 0.963 2.226 0.414 0.882 0.858 1.752 1.331 2.605 0.283 0.517 0.586 1.038 0.901 1.554 0.671 1.091 1.386 2.151 2.147 3.177 1.237 1.671 2.611 3.266 4.121 4.776l-3.418-3.855c2.069 2.637 4.442 5.025 7.067 7.11 0.569 0.455 1.13 0.878 1.699 1.286 0.835 0.595 1.71 1.175 2.608 1.724 0.576 0.356 1.156 0.691 1.742 1.012 0.725 0.394 1.482 0.781 2.252 1.145 0.897 0.425 1.781 0.805 2.674 1.153 0.653 0.257 1.34 0.506 2.035 0.738 0.782 0.258 1.549 0.489 2.321 0.698 0.834 0.23 1.702 0.437 2.58 0.617 0.763 0.152 1.518 0.286 2.275 0.399 0.813 0.124 1.654 0.225 2.503 0.3 1.021 0.089 2.020 0.143 3.020 0.162 0.261 0.005 0.536 0.008 0.811 0.008h768z" />
<glyph unicode="&#xe93e;" d="M512 853.334c109.846 0 182.621-169.764 191.157-384.009l150.176 0.009c23.564 0 42.667-19.103 42.667-42.667s-19.103-42.667-42.667-42.667l-150.178-0.033c-8.544-214.226-81.316-383.967-191.155-383.967s-182.611 169.741-191.155 383.967l-150.178 0.033c-23.564 0-42.667 19.103-42.667 42.667s19.103 42.667 42.667 42.667l150.176-0.009c8.536 214.246 81.311 384.009 191.157 384.009zM617.677 383.97h-211.353c7.89-169.654 61.417-298.636 105.677-298.636s97.787 128.982 105.677 298.636zM512 768c-44.263 0-97.796-129.004-105.679-298.679h211.357c-7.883 169.675-61.416 298.679-105.679 298.679z" />
<glyph unicode="&#xe93f;" d="M512-0c235.641 0 426.667 191.025 426.667 426.667s-191.025 426.667-426.667 426.667c-235.641 0-426.667-191.025-426.667-426.667s191.025-426.667 426.667-426.667zM512 85.334c-188.513 0-341.333 152.82-341.333 341.333s152.82 341.333 341.333 341.333c188.513 0 341.333-152.82 341.333-341.333s-152.82-341.333-341.333-341.333z" />
<glyph unicode="&#xe940;" d="M512-0c235.641 0 426.667 191.025 426.667 426.667s-191.025 426.667-426.667 426.667c-235.641 0-426.667-191.025-426.667-426.667s191.025-426.667 426.667-426.667zM512 85.334c-188.513 0-341.333 152.82-341.333 341.333s152.82 341.333 341.333 341.333c188.513 0 341.333-152.82 341.333-341.333s-152.82-341.333-341.333-341.333z" />
<glyph unicode="&#xe941;" d="M554.667 469.334v170.667c0 23.564-19.103 42.667-42.667 42.667s-42.667-19.103-42.667-42.667v-213.333c0-23.564 19.103-42.667 42.667-42.667h128c23.564 0 42.667 19.103 42.667 42.667s-19.103 42.667-42.667 42.667h-85.333z" />
<glyph unicode="&#xe942;" d="M482.758 841.737c16.429 15.462 42.056 15.462 58.484 0v0l362.667-341.333c17.159-16.15 17.978-43.153 1.828-60.312-13.834-14.699-35.632-17.407-52.384-7.73l-0.019-389.694c0-23.564-19.103-42.667-42.667-42.667h-170.667v85.333h128v425.771l-256 240.971-256-240.928v-425.813h128v-85.333h-170.667c-23.564 0-42.667 19.103-42.667 42.667v0l0.025 389.72c-16.758-9.707-38.582-7.007-52.428 7.705-16.15 17.159-15.332 44.162 1.828 60.312v0z" />
<glyph unicode="&#xe943;" d="M426.667 384h170.667v-341.333c0-23.564 19.103-42.667 42.667-42.667h42.667v426.667c0 23.564-19.103 42.667-42.667 42.667h-256c-23.564 0-42.667-19.103-42.667-42.667v-426.667h42.667c23.564 0 42.667 19.103 42.667 42.667v341.333z" />
<glyph unicode="&#xe944;" d="M810.667 853.334c23.564 0 42.667-19.103 42.667-42.667v-768c0-23.564-19.103-42.667-42.667-42.667h-597.333c-23.564 0-42.667 19.103-42.667 42.667v768c0 23.564 19.103 42.667 42.667 42.667h597.333zM768 768h-512v-682.667h512v682.667zM469.333 213.334c23.564 0 42.667-19.103 42.667-42.667s-19.103-42.667-42.667-42.667h-85.333c-23.564 0-42.667 19.103-42.667 42.667s19.103 42.667 42.667 42.667h85.333zM640 213.334c23.564 0 42.667-19.103 42.667-42.667s-19.103-42.667-42.667-42.667h-42.667c-23.564 0-42.667 19.103-42.667 42.667s19.103 42.667 42.667 42.667h42.667zM640 341.334c23.564 0 42.667-19.103 42.667-42.667s-19.103-42.667-42.667-42.667h-256c-23.564 0-42.667 19.103-42.667 42.667s19.103 42.667 42.667 42.667h256z" />
<glyph unicode="&#xe945;" d="M512 714.667c53.019 0 96-42.981 96-96 0-32.967-16.618-62.053-41.933-79.338 48.858-14.107 84.6-59.21 84.6-112.662 0-17.673-14.327-32-32-32s-32 14.327-32 32v0l-0.275 5.453c-2.731 26.894-25.444 47.88-53.058 47.88v0h-42.667c-29.455 0-53.333-23.878-53.333-53.333v0l-0.292-4.342c-2.119-15.619-15.508-27.658-31.708-27.658-17.673 0-32 14.327-32 32 0 53.451 35.742 98.555 84.629 112.715-25.345 17.232-41.962 46.318-41.962 79.285 0 53.019 42.981 96 96 96zM512 650.667c-17.673 0-32-14.327-32-32s14.327-32 32-32c17.673 0 32 14.327 32 32s-14.327 32-32 32z" />
<glyph unicode="&#xe946;" d="M896 768c23.564 0 42.667-19.103 42.667-42.667v-597.333c0-23.564-19.103-42.667-42.667-42.667h-768c-23.564 0-42.667 19.103-42.667 42.667v597.333c0 23.564 19.103 42.667 42.667 42.667h768zM853.333 682.667h-682.667v-512h682.667v512zM469.333 597.334c23.564 0 42.667-19.103 42.667-42.667v-256c0-23.564-19.103-42.667-42.667-42.667h-170.667c-23.564 0-42.667 19.103-42.667 42.667v256c0 23.564 19.103 42.667 42.667 42.667h170.667zM426.667 512h-85.333v-170.667h85.333v170.667z" />
<glyph unicode="&#xe947;" d="M725.333 341.334c23.564 0 42.667-19.103 42.667-42.667s-19.103-42.667-42.667-42.667h-128c-23.564 0-42.667 19.103-42.667 42.667s19.103 42.667 42.667 42.667h128zM725.333 469.334c23.564 0 42.667-19.103 42.667-42.667s-19.103-42.667-42.667-42.667h-128c-23.564 0-42.667 19.103-42.667 42.667s19.103 42.667 42.667 42.667h128zM725.333 597.334c23.564 0 42.667-19.103 42.667-42.667s-19.103-42.667-42.667-42.667h-128c-23.564 0-42.667 19.103-42.667 42.667s19.103 42.667 42.667 42.667h128z" />
<glyph unicode="&#xe948;" d="M512-0c235.641 0 426.667 191.025 426.667 426.667s-191.025 426.667-426.667 426.667c-235.641 0-426.667-191.025-426.667-426.667s191.025-426.667 426.667-426.667zM512 85.334c-188.513 0-341.333 152.82-341.333 341.333s152.82 341.333 341.333 341.333c188.513 0 341.333-152.82 341.333-341.333s-152.82-341.333-341.333-341.333z" />
<glyph unicode="&#xe949;" d="M512 533.334c23.564 0 42.667-19.103 42.667-42.667v-256c0-23.564-19.103-42.667-42.667-42.667s-42.667 19.103-42.667 42.667v256c0 23.564 19.103 42.667 42.667 42.667zM512 661.334c23.564 0 42.667-19.103 42.667-42.667s-19.103-42.667-42.667-42.667c-23.564 0-42.667 19.103-42.667 42.667s19.103 42.667 42.667 42.667z" />
<glyph unicode="&#xe94a;" d="M597.333 810.667c1.817 0 3.608-0.114 5.365-0.334l-5.365 0.334c2.254 0 4.49-0.178 6.689-0.527 1.349-0.207 2.668-0.48 3.963-0.813 0.433-0.122 0.863-0.24 1.291-0.365 1.323-0.374 2.621-0.821 3.888-1.328 0.382-0.165 0.768-0.326 1.151-0.492 1.206-0.512 2.373-1.085 3.509-1.709 0.442-0.251 0.895-0.509 1.343-0.776 1.201-0.71 2.358-1.48 3.474-2.303 0.273-0.204 0.567-0.426 0.858-0.652 0.19-0.146 0.355-0.276 0.519-0.408l3.484-3.123 170.667-170.667c8.002-8.002 12.497-18.854 12.497-30.17v-512c0-23.564-19.103-42.667-42.667-42.667h-512c-23.564 0-42.667 19.103-42.667 42.667v682.667c0 23.564 19.103 42.667 42.667 42.667zM554.667 725.334h-256v-597.333h426.667v384h-128c-21.881 0-39.915 16.471-42.38 37.691l-0.287 4.976v170.667zM707.669 597.334l-67.669 67.627v-67.627h67.669z" />
<glyph unicode="&#xe94b;" d="M597.333 298.667c23.564 0 42.667-19.103 42.667-42.667s-19.103-42.667-42.667-42.667h-170.667c-23.564 0-42.667 19.103-42.667 42.667s19.103 42.667 42.667 42.667h170.667zM469.333 469.334c23.564 0 42.667-19.103 42.667-42.667s-19.103-42.667-42.667-42.667h-42.667c-23.564 0-42.667 19.103-42.667 42.667s19.103 42.667 42.667 42.667h42.667zM597.333 469.334c23.564 0 42.667-19.103 42.667-42.667s-19.103-42.667-42.667-42.667c-23.564 0-42.667 19.103-42.667 42.667s19.103 42.667 42.667 42.667zM469.333 640c23.564 0 42.667-19.103 42.667-42.667s-19.103-42.667-42.667-42.667h-42.667c-23.564 0-42.667 19.103-42.667 42.667s19.103 42.667 42.667 42.667h42.667z" />
<glyph unicode="&#xe94c;" d="M298.667 426.667c23.564 0 42.667-19.103 42.667-42.667v-341.333c0-23.564-19.103-42.667-42.667-42.667h-170.667c-23.564 0-42.667 19.103-42.667 42.667v341.333c0 23.564 19.103 42.667 42.667 42.667h170.667zM597.333 597.334c23.564 0 42.667-19.103 42.667-42.667v-512c0-23.564-19.103-42.667-42.667-42.667h-170.667c-23.564 0-42.667 19.103-42.667 42.667v512c0 23.564 19.103 42.667 42.667 42.667h170.667zM896 512c23.564 0 42.667-19.103 42.667-42.667v-426.667c0-23.564-19.103-42.667-42.667-42.667h-170.667c-23.564 0-42.667 19.103-42.667 42.667v426.667c0 23.564 19.103 42.667 42.667 42.667h170.667zM256 341.334h-85.333v-256h85.333v256zM554.667 512h-85.333v-426.667h85.333v426.667zM853.333 426.667h-85.333v-341.333h85.333v341.333z" />
<glyph unicode="&#xe94d;" d="M812.009 688.374l-278.841 159.338c-15.656 8.946-35.245 7.085-48.936-4.65l-268.668-230.287-57.395 57.395c-16.662 16.662-43.677 16.662-60.34 0s-16.662-43.677 0-60.34l85.333-85.333c15.765-15.765 41.009-16.734 57.937-2.225l275.837 236.432 272.56-155.749c12.386-7.078 27.49-7.497 40.25-1.117l85.333 42.667c21.076 10.538 29.619 36.167 19.081 57.243s-36.167 29.619-57.243 19.081l-64.91-32.455z" />
<glyph unicode="&#xe94e;" d="M674.902 285.098c16.662 16.662 43.677 16.662 60.34 0v0l181.019-181.019c16.662-16.662 16.662-43.677 0-60.34s-43.677-16.662-60.34 0v0l-181.019 181.019c-16.662 16.662-16.662 43.677 0 60.34zM896 853.334c23.564 0 42.667-19.103 42.667-42.667v0-341.333c0-23.564-19.103-42.667-42.667-42.667v0h-128c-23.564 0-42.667 19.103-42.667 42.667s19.103 42.667 42.667 42.667v0h85.333v256h-682.667v-256h213.333c23.564 0 42.667-19.103 42.667-42.667s-19.103-42.667-42.667-42.667v0h-256c-23.564 0-42.667 19.103-42.667 42.667v0 341.333c0 23.564 19.103 42.667 42.667 42.667v0z" />
<glyph unicode="&#xe94f;" d="M576 640c129.603 0 234.667-105.064 234.667-234.667s-105.064-234.667-234.667-234.667c-129.603 0-234.667 105.064-234.667 234.667s105.064 234.667 234.667 234.667zM576 554.667c-82.475 0-149.333-66.859-149.333-149.333s66.859-149.333 149.333-149.333c82.475 0 149.333 66.859 149.333 149.333s-66.859 149.333-149.333 149.333zM384 682.667c23.564 0 42.667-19.103 42.667-42.667s-19.103-42.667-42.667-42.667h-85.333c-23.564 0-42.667 19.103-42.667 42.667s19.103 42.667 42.667 42.667h85.333z" />
<glyph unicode="&#xe950;" d="M341.333 426.667v0c0-23.564-19.103-42.667-42.667-42.667h-170.667c-23.564 0-42.667 19.103-42.667 42.667v0c0 23.564 19.103 42.667 42.667 42.667h170.667c23.564 0 42.667-19.103 42.667-42.667z" />
<glyph unicode="&#xe951;" d="M512-0c-23.564 0-42.667 19.103-42.667 42.667v170.667c0 23.564 19.103 42.667 42.667 42.667s42.667-19.103 42.667-42.667v-170.667c0-23.564-19.103-42.667-42.667-42.667z" />
<glyph unicode="&#xe952;" d="M938.667 426.667v0c0-23.564-19.103-42.667-42.667-42.667h-170.667c-23.564 0-42.667 19.103-42.667 42.667v0c0 23.564 19.103 42.667 42.667 42.667h170.667c23.564 0 42.667-19.103 42.667-42.667z" />
<glyph unicode="&#xe953;" d="M512 597.334c-23.564 0-42.667 19.103-42.667 42.667v170.667c0 23.564 19.103 42.667 42.667 42.667s42.667-19.103 42.667-42.667v-170.667c0-23.564-19.103-42.667-42.667-42.667z" />
<glyph unicode="&#xe954;" d="M391.32 547.347v0c-16.662-16.662-43.677-16.662-60.34 0l-120.68 120.68c-16.662 16.662-16.662 43.677 0 60.34v0c16.662 16.662 43.677 16.662 60.34 0l120.68-120.68c16.662-16.662 16.662-43.677 0-60.34z" />
<glyph unicode="&#xe955;" d="M210.301 124.968c-16.662 16.662-16.662 43.677 0 60.34l120.68 120.68c16.662 16.662 43.677 16.662 60.34 0s16.662-43.677 0-60.34l-120.68-120.68c-16.662-16.662-43.677-16.662-60.34 0z" />
<glyph unicode="&#xe956;" d="M813.699 124.968v0c-16.662-16.662-43.677-16.662-60.34 0l-120.68 120.68c-16.662 16.662-16.662 43.677 0 60.34v0c16.662 16.662 43.677 16.662 60.34 0l120.68-120.68c16.662-16.662 16.662-43.677 0-60.34z" />
<glyph unicode="&#xe957;" d="M632.68 547.347c-16.662 16.662-16.662 43.677 0 60.34l120.68 120.68c16.662 16.662 43.677 16.662 60.34 0s16.662-43.677 0-60.34l-120.68-120.68c-16.662-16.662-43.677-16.662-60.34 0z" />
<glyph unicode="&#xe958;" d="M353.83 712.837c16.662 16.662 43.677 16.662 60.34 0v0l256-256c1.215-1.215 2.356-2.502 3.418-3.855 0.235-0.295 0.471-0.604 0.702-0.915 0.761-1.032 1.477-2.092 2.145-3.185 0.318-0.514 0.622-1.035 0.913-1.562 0.464-0.843 0.909-1.714 1.323-2.601 0.34-0.725 0.66-1.464 0.957-2.209 0.337-0.843 0.644-1.687 0.925-2.543 0.206-0.635 0.403-1.292 0.585-1.952 0.256-0.92 0.478-1.845 0.669-2.782 0.148-0.743 0.279-1.487 0.39-2.233 0.13-0.851 0.234-1.731 0.311-2.62 0.067-0.802 0.113-1.57 0.137-2.339 0.014-0.429 0.022-0.901 0.022-1.376l-0.023-1.419c-0.024-0.74-0.068-1.48-0.131-2.218l0.154 3.636c0-2.16-0.16-4.282-0.47-6.356-0.111-0.725-0.242-1.468-0.393-2.209-0.188-0.94-0.409-1.865-0.661-2.778-0.187-0.667-0.384-1.323-0.598-1.976-0.272-0.839-0.579-1.683-0.912-2.514-0.303-0.757-0.622-1.495-0.963-2.226-0.414-0.882-0.858-1.752-1.331-2.605-0.283-0.517-0.586-1.038-0.901-1.554-0.671-1.091-1.386-2.151-2.147-3.177-1.237-1.671-2.611-3.266-4.121-4.776l3.418 3.855c-0.097-0.124-0.196-0.248-0.295-0.371l-3.123-3.484-256-256c-16.662-16.662-43.677-16.662-60.34 0s-16.662 43.677 0 60.34v0l183.13 183.163h-408.96c-23.564 0-42.667 19.103-42.667 42.667s19.103 42.667 42.667 42.667h408.96l-183.13 183.163c-15.381 15.381-16.564 39.583-3.549 56.32z" />
<glyph unicode="&#xe959;" d="M853.333 768v-682.667h-298.667c-23.564 0-42.667-19.103-42.667-42.667s19.103-42.667 42.667-42.667h341.333c23.564 0 42.667 19.103 42.667 42.667v768c0 23.564-19.103 42.667-42.667 42.667h-341.333c-23.564 0-42.667-19.103-42.667-42.667s19.103-42.667 42.667-42.667h298.667z" />
<glyph unicode="&#xe95a;" d="M1024 426.667c0-282.77-229.23-512-512-512s-512 229.23-512 512c0 282.77 229.23 512 512 512s512-229.23 512-512z" />
<glyph unicode="&#xe95b;" d="M560.747 533.952c16.397 27.328 55.877 27.687 72.768 0.661v0l213.333-341.333c12.489-19.982 6.414-46.306-13.568-58.795s-46.306-6.414-58.795 13.568v0l-176.409 282.255-92.156-153.594c-14.281-23.802-47.129-27.846-66.756-8.218v0l-51.626 51.626-140.887-176.109c-14.72-18.401-41.57-21.384-59.971-6.663s-21.384 41.57-6.663 59.971v0l170.667 213.333c15.886 19.857 45.505 21.498 63.487 3.516v0l46.692-46.692zM341.333 597.334c23.564 0 42.667-19.103 42.667-42.667s-19.103-42.667-42.667-42.667c-23.564 0-42.667 19.103-42.667 42.667s19.103 42.667 42.667 42.667z" />
<glyph unicode="&#xe95c;" d="M810.667 725.334c23.564 0 42.667-19.103 42.667-42.667v-512c0-23.564-19.103-42.667-42.667-42.667h-597.333c-23.564 0-42.667 19.103-42.667 42.667v512c0 23.564 19.103 42.667 42.667 42.667h597.333zM768 640h-512v-426.667h512v426.667z" />
<glyph unicode="&#xe95d;" d="M609.83 712.837c16.662 16.662 43.677 16.662 60.34 0v0l256-256c1.215-1.215 2.356-2.502 3.418-3.855 0.235-0.295 0.471-0.604 0.702-0.915 0.761-1.032 1.477-2.092 2.145-3.185 0.318-0.514 0.622-1.035 0.913-1.562 0.464-0.843 0.909-1.714 1.323-2.601 0.34-0.725 0.66-1.464 0.957-2.209 0.337-0.843 0.644-1.687 0.925-2.543 0.206-0.635 0.403-1.292 0.585-1.952 0.256-0.92 0.478-1.845 0.669-2.782 0.148-0.743 0.279-1.487 0.39-2.233 0.13-0.851 0.234-1.731 0.311-2.62 0.067-0.802 0.113-1.57 0.137-2.339 0.014-0.429 0.022-0.901 0.022-1.376l-0.023-1.419c-0.024-0.74-0.068-1.48-0.131-2.218l0.154 3.636c0-2.16-0.16-4.282-0.47-6.356-0.111-0.725-0.242-1.468-0.393-2.209-0.188-0.94-0.409-1.865-0.661-2.778-0.187-0.667-0.384-1.323-0.598-1.976-0.272-0.839-0.579-1.683-0.912-2.514-0.303-0.757-0.622-1.495-0.963-2.226-0.414-0.882-0.858-1.752-1.331-2.605-0.283-0.517-0.586-1.038-0.901-1.554-0.671-1.091-1.386-2.151-2.147-3.177-1.237-1.671-2.611-3.266-4.121-4.776l3.418 3.855c-0.097-0.124-0.196-0.248-0.295-0.371l-3.123-3.484-256-256c-16.662-16.662-43.677-16.662-60.34 0s-16.662 43.677 0 60.34v0l183.13 183.163h-408.96c-23.564 0-42.667 19.103-42.667 42.667s19.103 42.667 42.667 42.667h408.96l-183.13 183.163c-15.381 15.381-16.564 39.583-3.549 56.32z" />
<glyph unicode="&#xe95e;" d="M170.667 768v-682.667h298.667c23.564 0 42.667-19.103 42.667-42.667s-19.103-42.667-42.667-42.667h-341.333c-23.564 0-42.667 19.103-42.667 42.667v768c0 23.564 19.103 42.667 42.667 42.667h341.333c23.564 0 42.667-19.103 42.667-42.667s-19.103-42.667-42.667-42.667h-298.667z" />
<glyph unicode="&#xe95f;" d="M85.333 725.334c0 23.564 19.103 42.667 42.667 42.667h768c23.564 0 42.667-19.103 42.667-42.667v-597.333c0-23.564-19.103-42.667-42.667-42.667h-768c-23.564 0-42.667 19.103-42.667 42.667v597.333zM170.667 682.667v-512h682.667v512h-682.667z" />
<glyph unicode="&#xe960;" d="M512 480.72l-357.805 278.293c-18.6 14.467-45.407 11.116-59.874-7.484s-11.116-45.407 7.484-59.874l384-298.667c15.407-11.984 36.982-11.984 52.39 0l384 298.667c18.6 14.467 21.951 41.273 7.484 59.874s-41.273 21.951-59.874 7.484l-357.805-278.293z" />
<glyph unicode="&#xe961;" d="M170.667 810.667c0 23.564 19.103 42.667 42.667 42.667h597.333c23.564 0 42.667-19.103 42.667-42.667v-768c0-23.564-19.103-42.667-42.667-42.667h-512c-70.692 0-128 57.308-128 128v682.667zM256 768v-640c0-23.564 19.103-42.667 42.667-42.667h469.333v682.667h-512z" />
<glyph unicode="&#xe962;" d="M298.667 256h512c23.564 0 42.667-19.103 42.667-42.667v-170.667c0-23.564-19.103-42.667-42.667-42.667h-512c-70.692 0-128 57.308-128 128s57.308 128 128 128zM768 170.667h-469.333c-23.564 0-42.667-19.103-42.667-42.667s19.103-42.667 42.667-42.667h469.333v85.333z" />
<glyph unicode="&#xe963;" d="M896 256c23.564 0 42.667-19.103 42.667-42.667s-19.103-42.667-42.667-42.667h-512c-23.564 0-42.667 19.103-42.667 42.667s19.103 42.667 42.667 42.667h512zM896 469.334c23.564 0 42.667-19.103 42.667-42.667s-19.103-42.667-42.667-42.667h-512c-23.564 0-42.667 19.103-42.667 42.667s19.103 42.667 42.667 42.667h512zM896 682.667c23.564 0 42.667-19.103 42.667-42.667s-19.103-42.667-42.667-42.667h-512c-23.564 0-42.667 19.103-42.667 42.667s19.103 42.667 42.667 42.667h512z" />
<glyph unicode="&#xe964;" d="M170.667 277.334c35.346 0 64-28.654 64-64s-28.654-64-64-64c-35.346 0-64 28.654-64 64s28.654 64 64 64zM170.667 490.667c35.346 0 64-28.654 64-64s-28.654-64-64-64c-35.346 0-64 28.654-64 64s28.654 64 64 64zM170.667 704c35.346 0 64-28.654 64-64s-28.654-64-64-64c-35.346 0-64 28.654-64 64s28.654 64 64 64z" />
<glyph unicode="&#xe965;" d="M687.171 616.415c-6.006-12.012-6.006-26.15 0-38.162l54.459-108.919h-528.297c-23.564 0-42.667-19.103-42.667-42.667s19.103-42.667 42.667-42.667h597.333c31.718 0 52.347 33.379 38.162 61.748l-75.793 151.586 75.793 151.586c14.185 28.369-6.445 61.748-38.162 61.748h-597.333c-23.564 0-42.667-19.103-42.667-42.667s19.103-42.667 42.667-42.667h528.297l-54.459-108.919z" />
<glyph unicode="&#xe966;" d="M213.333 853.334c23.564 0 42.667-19.103 42.667-42.667v-768c0-23.564-19.103-42.667-42.667-42.667s-42.667 19.103-42.667 42.667v768c0 23.564 19.103 42.667 42.667 42.667z" />
<glyph unicode="&#xe967;" glyph-name="more" d="M298.667 490.667c35.346 0 64-28.654 64-64s-28.654-64-64-64c-35.346 0-64 28.654-64 64s28.654 64 64 64zM512 490.667c35.346 0 64-28.654 64-64s-28.654-64-64-64c-35.346 0-64 28.654-64 64s28.654 64 64 64zM725.333 490.667c35.346 0 64-28.654 64-64s-28.654-64-64-64c-35.346 0-64 28.654-64 64s28.654 64 64 64z" />
<glyph unicode="&#xe968;" d="M896 768c23.564 0 42.667-19.103 42.667-42.667v-597.333c0-23.564-19.103-42.667-42.667-42.667s-42.667 19.103-42.667 42.667v597.333c0 23.564 19.103 42.667 42.667 42.667zM725.333 469.334c23.564 0 42.667-19.103 42.667-42.667s-19.103-42.667-42.667-42.667h-597.333c-23.564 0-42.667 19.103-42.667 42.667s19.103 42.667 42.667 42.667h597.333z" />
<glyph unicode="&#xe969;" d="M396.497 158.17c-16.662-16.662-16.662-43.677 0-60.34s43.677-16.662 60.34 0l298.667 298.667c16.662 16.662 16.662 43.677 0 60.34l-298.667 298.667c-16.662 16.662-43.677 16.662-60.34 0s-16.662-43.677 0-60.34l268.497-268.497-268.497-268.497z" />
<glyph unicode="&#xe96a;" d="M725.333 256c23.564 0 42.667-19.103 42.667-42.667s-19.103-42.667-42.667-42.667h-85.333c-23.564 0-42.667 19.103-42.667 42.667s19.103 42.667 42.667 42.667h85.333zM490.667 384c35.346 0 64-28.654 64-64v-85.333c0-35.346-28.654-64-64-64s-64 28.654-64 64v85.333c0 35.346 28.654 64 64 64zM725.333 384c23.564 0 42.667-19.103 42.667-42.667s-19.103-42.667-42.667-42.667h-85.333c-23.564 0-42.667 19.103-42.667 42.667s19.103 42.667 42.667 42.667h85.333zM725.333 512c23.564 0 42.667-19.103 42.667-42.667s-19.103-42.667-42.667-42.667h-256c-23.564 0-42.667 19.103-42.667 42.667s19.103 42.667 42.667 42.667h256zM704 682.667c35.346 0 64-28.654 64-64s-28.654-64-64-64h-213.333c-35.346 0-64 28.654-64 64s28.654 64 64 64h213.333z" />
<glyph unicode="&#xe96b;" d="M85.333 213.334v426.667c0 23.564 19.103 42.667 42.667 42.667h128v128c0 23.564 19.103 42.667 42.667 42.667h597.333c23.564 0 42.667-19.103 42.667-42.667v-768c0-23.564-19.103-42.667-42.667-42.667h-597.333c-117.821 0-213.333 95.513-213.333 213.333zM853.333 768h-512v-682.667h512v682.667zM256 597.334h-85.333v-384c0-55.732 35.618-103.145 85.333-120.717v504.717z" />
<glyph unicode="&#xe96c;" d="M316.34 170.667l-158.17-158.17c-26.879-26.878-72.837-7.842-72.837 30.17v768c0 23.564 19.103 42.667 42.667 42.667h768c23.564 0 42.667-19.103 42.667-42.667v-597.333c0-23.564-19.103-42.667-42.667-42.667h-579.66zM170.667 145.673l97.83 97.83c8.002 8.002 18.854 12.497 30.17 12.497h554.667v512h-682.667v-622.327z" />
<glyph unicode="&#xe96d;" d="M469.333 554.667c23.564 0 42.667-19.103 42.667-42.667s-19.103-42.667-42.667-42.667h-170.667c-23.564 0-42.667 19.103-42.667 42.667s19.103 42.667 42.667 42.667h170.667zM725.333 682.667c23.564 0 42.667-19.103 42.667-42.667s-19.103-42.667-42.667-42.667h-426.667c-23.564 0-42.667 19.103-42.667 42.667s19.103 42.667 42.667 42.667h426.667z" />
<glyph unicode="&#xe96e;" d="M512 853.334c23.564 0 42.667-19.103 42.667-42.667v-42.667l-0.133-2.986c15.354-2.175 30.334-5.51 44.85-9.914-19.739-21.533-33.963-48.106-40.575-77.556-15.026 3.356-30.711 5.123-46.809 5.123-115.74 0-210.142-91.357-215.031-205.893l-0.199-9.336v-147.437c0-21.881-16.471-39.915-37.691-42.38l-4.976-0.287h-30.104c-17.673 0-32-14.327-32-32 0-16.2 12.039-29.589 27.658-31.708l4.342-0.292h576c17.673 0 32 14.327 32 32 0 16.2-12.039 29.589-27.658 31.708l-4.342 0.292h-30.104c-21.881 0-39.915 16.471-42.38 37.691l-0.287 4.976v147.437l-0.062 1.939 6.683 0.166c28.219 1.387 54.635 9.628 77.621 23.092l0.371-4.228c0.239-3.464 0.419-6.944 0.539-10.439l0.181-10.53v-105.435l7.292-1.008c55.346-9.433 97.479-57.626 97.479-115.66 0-62.401-48.713-113.425-110.186-117.119l-7.148-0.214h-160c0-70.692-57.308-128-128-128-68.168 0-123.89 53.287-127.783 120.479l-0.217 7.521h-160c-64.801 0-117.333 52.532-117.333 117.333 0 58.034 42.133 106.228 97.479 115.66l7.292 1.008v105.435c0 151.573 112.197 276.941 258.072 297.583l-0.14 1.468-0.035 44.179c0 23.564 19.103 42.667 42.667 42.667zM554.667 128h-85.333l0.287-4.976c2.465-21.22 20.499-37.691 42.38-37.691s39.915 16.471 42.38 37.691l0.287 4.976z" />
<glyph unicode="&#xe96f;" d="M853.333 640c0-70.692-57.308-128-128-128s-128 57.308-128 128c0 70.692 57.308 128 128 128s128-57.308 128-128z" />
<glyph unicode="&#xe970;" d="M597.333 170.667c23.564 0 42.667-19.103 42.667-42.667 0-70.692-57.308-128-128-128s-128 57.308-128 128c0 23.564 19.103 42.667 42.667 42.667s42.667-19.103 42.667-42.667v0l0.287-4.976c2.465-21.22 20.499-37.691 42.38-37.691 23.564 0 42.667 19.103 42.667 42.667v0l0.287 4.976c2.465 21.22 20.499 37.691 42.38 37.691zM512 853.334c23.564 0 42.667-19.103 42.667-42.667v-42.667c0-23.564-19.103-42.667-42.667-42.667s-42.667 19.103-42.667 42.667v42.667c0 23.564 19.103 42.667 42.667 42.667z" />
<glyph unicode="&#xe971;" d="M812.563 467.437c0 165.996-134.567 300.563-300.563 300.563s-300.563-134.567-300.563-300.563v-105.435c-58.894-6.269-104.77-56.111-104.77-116.669 0-64.801 52.532-117.333 117.333-117.333h576c64.801 0 117.333 52.532 117.333 117.333 0 58.034-42.133 106.228-97.479 115.66l-7.292 1.008v105.435zM192 245.334c0 17.673 14.327 32 32 32h30.104c23.564 0 42.667 19.103 42.667 42.667v147.437c0 118.868 96.362 215.23 215.23 215.23s215.23-96.362 215.23-215.23v-147.437c0-23.564 19.103-42.667 42.667-42.667h30.104c17.673 0 32-14.327 32-32s-14.327-32-32-32h-576c-17.673 0-32 14.327-32 32z" />
<glyph unicode="&#xe972;" d="M896 768c23.564 0 42.667-19.103 42.667-42.667v-597.333c0-23.564-19.103-42.667-42.667-42.667h-768c-23.564 0-42.667 19.103-42.667 42.667v597.333c0 23.564 19.103 42.667 42.667 42.667h768zM853.333 512h-682.667v-341.333h682.667v341.333zM298.667 426.667c23.564 0 42.667-19.103 42.667-42.667v-85.333c0-23.564-19.103-42.667-42.667-42.667s-42.667 19.103-42.667 42.667v85.333c0 23.564 19.103 42.667 42.667 42.667zM426.667 426.667c23.564 0 42.667-19.103 42.667-42.667v-85.333c0-23.564-19.103-42.667-42.667-42.667s-42.667 19.103-42.667 42.667v85.333c0 23.564 19.103 42.667 42.667 42.667zM853.333 682.667h-682.667v-85.333h682.667v85.333z" />
<glyph unicode="&#xe973;" d="M682.667 426.667c47.128 0 85.333-38.205 85.333-85.333s-38.205-85.333-85.333-85.333c-15.544 0-30.118 4.156-42.67 11.418-12.513-7.252-27.102-11.418-42.664-11.418-47.128 0-85.333 38.205-85.333 85.333s38.205 85.333 85.333 85.333c15.562 0 30.151-4.166 42.713-11.443 12.503 7.287 27.076 11.443 42.621 11.443zM682.667 362.667l-2.623-0.256c1.713-6.741 2.623-13.803 2.623-21.077 0-7.29-0.914-14.366-2.634-21.12 0.815-0.155 1.717-0.213 2.634-0.213 11.782 0 21.333 9.551 21.333 21.333s-9.551 21.333-21.333 21.333z" />
<glyph unicode="&#xe974;" d="M455.482 471.982l13.334 56.002c3.432 14.414-0.86 29.576-11.337 40.052l-162.917 162.917c-16.662 16.662-43.677 16.662-60.34 0l-60.34-60.34c-83.312-83.312-83.312-218.387 0-301.699l301.699-301.699c83.312-83.312 218.387-83.312 301.699 0l60.34 60.34c16.662 16.662 16.662 43.677 0 60.34l-162.917 162.917c-10.477 10.477-25.639 14.768-40.052 11.337l-56.002-13.334-123.166 123.166zM380.281 524.556l-13.334-56.002c-3.432-14.414 0.86-29.576 11.337-40.052l156.883-156.883c10.477-10.477 25.639-14.768 40.052-11.337l56.002 13.334 115.889-115.889-30.17-30.17c-49.987-49.987-131.032-49.987-181.019 0l-301.699 301.699c-49.987 49.987-49.987 131.032 0 181.019l30.17 30.17 115.889-115.889z" />
<glyph unicode="&#xe975;" d="M762.196 444.34l165.934-165.934c16.662-16.662 16.662-43.677 0-60.34s-43.677-16.662-60.34 0l-165.934 165.934c-16.662 16.662-16.662 43.677 0 60.34s43.677 16.662 60.34 0zM385.072 821.464l165.934-165.934c16.662-16.662 16.662-43.677 0-60.34s-43.677-16.662-60.34 0l-165.934 165.934c-16.662 16.662-16.662 43.677 0 60.34s43.677 16.662 60.34 0z" />
<glyph unicode="&#xe976;" d="M768 853.334c13.43 0 26.076-6.323 34.133-17.067v0l128-170.667c0.358-0.478 0.705-0.959 1.039-1.443 0.378-0.547 0.737-1.096 1.084-1.653 4.844-7.703 6.827-16.145 6.441-24.318l-0.030-595.519c0-23.564-19.103-42.667-42.667-42.667v0h-768c-23.564 0-42.667 19.103-42.667 42.667v0 597.333l-0.070 0.964c0.159 8.4 2.85 16.965 8.603 24.636l-2.301-3.385c0.466 0.762 0.955 1.508 1.466 2.238l0.835 1.147 128 170.667c8.058 10.744 20.704 17.067 34.133 17.067v0zM746.667 768h-469.333l-64-85.333h213.333c23.564 0 42.667-19.103 42.667-42.667s-19.103-42.667-42.667-42.667v0h-256.027l0.027-512h682.667l-0.027 512h-255.973c-21.881 0-39.915 16.471-42.38 37.691l-0.287 4.976c0 23.564 19.103 42.667 42.667 42.667v0h213.333l-64 85.333z" />
<glyph unicode="&#xe977;" d="M725.333 256c23.564 0 42.667-19.103 42.667-42.667s-19.103-42.667-42.667-42.667h-426.667c-23.564 0-42.667 19.103-42.667 42.667s19.103 42.667 42.667 42.667h426.667zM540.444 853.334c18.365 0 34.67-11.752 40.477-29.174l56.889-170.667c1.45-4.351 2.19-8.906 2.19-13.492v-256c0-23.564-19.103-42.667-42.667-42.667h-170.667c-23.564 0-42.667 19.103-42.667 42.667v256c0 4.586 0.739 9.142 2.19 13.492l56.889 170.667c5.808 17.423 22.112 29.174 40.477 29.174h56.889zM512 761.076l-42.667-128v-206.409h85.333v206.409l-42.667 128zM512 788.502l-7.371-5.313 5.063-15.189h4.616l5.063 15.189-7.371 5.313z" />
<glyph unicode="&#xe978;" d="M512 384c129.603 0 234.667 105.064 234.667 234.667s-105.064 234.667-234.667 234.667c-129.603 0-234.667-105.064-234.667-234.667s105.064-234.667 234.667-234.667zM512 469.334c-82.475 0-149.333 66.859-149.333 149.333s66.859 149.333 149.333 149.333c82.475 0 149.333-66.859 149.333-149.333s-66.859-149.333-149.333-149.333z" />
<glyph unicode="&#xe979;" d="M256 42.667v42.667c0 94.257 76.41 170.667 170.667 170.667h170.667c94.257 0 170.667-76.41 170.667-170.667v-42.667c0-23.564 19.103-42.667 42.667-42.667s42.667 19.103 42.667 42.667v42.667c0 141.385-114.615 256-256 256h-170.667c-141.385 0-256-114.615-256-256v-42.667c0-23.564 19.103-42.667 42.667-42.667s42.667 19.103 42.667 42.667z" />
<glyph unicode="&#xe97a;" d="M725.333 768c23.564 0 42.667-19.103 42.667-42.667v-42.667h128c23.564 0 42.667-19.103 42.667-42.667v-426.667c0-23.564-19.103-42.667-42.667-42.667h-128v-42.667c0-23.564-19.103-42.667-42.667-42.667s-42.667 19.103-42.667 42.667v42.667h-554.667c-23.564 0-42.667 19.103-42.667 42.667v426.667c0 23.564 19.103 42.667 42.667 42.667h554.667v42.667c0 23.564 19.103 42.667 42.667 42.667zM682.667 597.334h-512v-341.333h512v341.333zM853.333 597.334h-85.333v-341.333h85.333v341.333z" />
<glyph unicode="&#xe97b;" d="M341.333 512h170.667c47.128 0 85.333-38.205 85.333-85.333s-38.205-85.333-85.333-85.333h-170.667c-47.128 0-85.333 38.205-85.333 85.333s38.205 85.333 85.333 85.333z" />
<glyph unicode="&#xe97c;" d="M640 853.334c11.316 0 22.168-4.495 30.17-12.497v0l128-128c8.002-8.002 12.497-18.854 12.497-30.17v0-298.667c0-23.564-19.103-42.667-42.667-42.667s-42.667 19.103-42.667 42.667v0 280.994l-103.006 103.006h-323.66v-384c0-23.564-19.103-42.667-42.667-42.667s-42.667 19.103-42.667 42.667v0 426.667c0 23.564 19.103 42.667 42.667 42.667v0zM512 469.334c23.564 0 42.667-19.103 42.667-42.667s-19.103-42.667-42.667-42.667h-85.333c-23.564 0-42.667 19.103-42.667 42.667s19.103 42.667 42.667 42.667h85.333zM597.333 597.334c23.564 0 42.667-19.103 42.667-42.667s-19.103-42.667-42.667-42.667h-170.667c-23.564 0-42.667 19.103-42.667 42.667s19.103 42.667 42.667 42.667h170.667z" />
<glyph unicode="&#xe97d;" d="M366.933 267.852v73.481c0 23.564-19.103 42.667-42.667 42.667h-196.267c-23.564 0-42.667-19.103-42.667-42.667v-298.667c0-23.564 19.103-42.667 42.667-42.667h768c23.564 0 42.667 19.103 42.667 42.667v298.667c0 23.564-19.103 42.667-42.667 42.667h-196.267c-23.564 0-42.667-19.103-42.667-42.667v-73.481h-290.133zM170.667 298.667h110.933v-73.481c0-23.564 19.103-42.667 42.667-42.667h375.467c23.564 0 42.667 19.103 42.667 42.667v73.481h110.933v-213.333h-682.667v213.333z" />
<glyph unicode="&#xe97e;" d="M768 341.334c0-141.385-114.615-256-256-256s-256 114.615-256 256c0 141.385 114.615 256 256 256h149.333c23.564 0 42.667 19.103 42.667 42.667s-19.103 42.667-42.667 42.667h-149.333c-188.513 0-341.333-152.82-341.333-341.333s152.82-341.333 341.333-341.333c188.513 0 341.333 152.82 341.333 341.333 0 23.564-19.103 42.667-42.667 42.667s-42.667-19.103-42.667-42.667z" />
<glyph unicode="&#xe97f;" d="M481.83 499.504c-16.662-16.662-16.662-43.677 0-60.34s43.677-16.662 60.34 0l170.667 170.667c16.662 16.662 16.662 43.677 0 60.34l-170.667 170.667c-16.662 16.662-43.677 16.662-60.34 0s-16.662-43.677 0-60.34l140.497-140.497-140.497-140.497z" />
<glyph unicode="&#xe980;" d="M725.333 426.667c0-23.564-19.103-42.667-42.667-42.667h-341.333c-23.564 0-42.667 19.103-42.667 42.667s19.103 42.667 42.667 42.667h341.333c23.564 0 42.667-19.103 42.667-42.667z" />
<glyph unicode="&#xe981;" d="M512-0c235.641 0 426.667 191.025 426.667 426.667s-191.025 426.667-426.667 426.667c-235.641 0-426.667-191.025-426.667-426.667s191.025-426.667 426.667-426.667zM512 85.334c-188.513 0-341.333 152.82-341.333 341.333s152.82 341.333 341.333 341.333c188.513 0 341.333-152.82 341.333-341.333s-152.82-341.333-341.333-341.333z" />
<glyph unicode="&#xe982;" glyph-name="remove" d="M853.333 426.667c0-23.564-19.103-42.667-42.667-42.667h-597.333c-23.564 0-42.667 19.103-42.667 42.667s19.103 42.667 42.667 42.667h597.333c23.564 0 42.667-19.103 42.667-42.667z" />
<glyph unicode="&#xe983;" d="M768 853.334c23.564 0 42.667-19.103 42.667-42.667v0-384c0-23.564-19.103-42.667-42.667-42.667s-42.667 19.103-42.667 42.667v0l0.010 218.707c-59.967 15.43-107.18 62.633-122.625 122.593h-181.437c-15.442-59.946-62.636-107.141-122.582-122.582l-0.032-218.718c0-23.564-19.103-42.667-42.667-42.667s-42.667 19.103-42.667 42.667v0 384c0 23.564 19.103 42.667 42.667 42.667v0zM329.901 767.972l-31.234 0.029 0.021-31.239c12.936 7.488 23.724 18.275 31.213 31.21zM725.333 768l-31.234-0.029c7.497-12.949 18.3-23.745 31.255-31.234l-0.021 31.263z" />
<glyph unicode="&#xe984;" d="M225.83 627.504c16.662 16.662 43.677 16.662 60.34 0s16.662-43.677 0-60.34v0l-87.983-87.974 200.016-111.183c-9.077 17.573-14.203 37.518-14.203 58.661 0 70.692 57.308 128 128 128s128-57.308 128-128c0-21.16-5.134-41.12-14.225-58.704l199.996 111.226-87.941 87.974c-16.662 16.662-16.662 43.677 0 60.34s43.677 16.662 60.34 0l128.43-128.399c5.627-5.74 9.702-13.125 11.31-21.617 0.1-0.646 0.207-1.274 0.299-1.904 0.13-0.788 0.224-1.605 0.295-2.43 0.066-0.821 0.115-1.632 0.141-2.443 0.015-0.449 0.022-0.911 0.022-1.376v-426.667c0-23.564-19.103-42.667-42.667-42.667h-768c-23.564 0-42.667 19.103-42.667 42.667v426.667l0.008 0.826c0.020 1.038 0.078 2.076 0.173 3.111l-0.181-3.937c0 2.144 0.152 4.235 0.443 6.268 0.107 0.611 0.214 1.239 0.335 1.865 1.587 8.513 5.661 15.898 11.288 21.638l0.43 0.399zM853.333 396.821l-320.613-178.118c-12.886-7.159-28.555-7.159-41.442 0l-320.613 178.118v-311.487h682.667v311.487zM512 469.334c-23.564 0-42.667-19.103-42.667-42.667s19.103-42.667 42.667-42.667c23.564 0 42.667 19.103 42.667 42.667s-19.103 42.667-42.667 42.667z" />
<glyph unicode="&#xe985;" d="M286.17 627.504c15.381-15.381 16.564-39.583 3.549-56.32l-3.549-4.020-72.837-72.87v120.789l12.497 12.421c16.662 16.662 43.677 16.662 60.34 0zM798.17 627.504l12.497-12.463v-120.747l-72.837 72.87c-16.662 16.662-16.662 43.677 0 60.34s43.677 16.662 60.34 0z" />
<glyph unicode="&#xe986;" d="M128-0c-23.564 0-42.667 19.103-42.667 42.667v768c0 23.564 19.103 42.667 42.667 42.667h768c23.564 0 42.667-19.103 42.667-42.667v-768c0-23.564-19.103-42.667-42.667-42.667h-768zM853.333 768h-682.667v-682.667h85.333v298.667c0 23.564 19.103 42.667 42.667 42.667h426.667c23.564 0 42.667-19.103 42.667-42.667v-298.667h85.333v682.667zM682.667 341.334h-341.333v-256h341.333v256z" />
<glyph unicode="&#xe987;" d="M341.333 768v-170.667h341.333v170.667h85.333v-213.333c0-23.564-19.103-42.667-42.667-42.667v0h-426.667c-23.564 0-42.667 19.103-42.667 42.667v0 213.333h85.333zM640 768v-85.333c0-23.564-19.103-42.667-42.667-42.667s-42.667 19.103-42.667 42.667v85.333h85.333z" />
<glyph unicode="&#xe988;" d="M645.176 297.595c16.662 16.662 43.677 16.662 60.34 0l211.189-211.189c16.662-16.662 16.662-43.677 0-60.34s-43.677-16.662-60.34 0l-211.189 211.189c-16.662 16.662-16.662 43.677 0 60.34z" />
<glyph unicode="&#xe989;" d="M426.667 170.667c188.513 0 341.333 152.82 341.333 341.333s-152.82 341.333-341.333 341.333c-188.513 0-341.333-152.82-341.333-341.333s152.82-341.333 341.333-341.333zM426.667 256c-141.385 0-256 114.615-256 256s114.615 256 256 256c141.385 0 256-114.615 256-256s-114.615-256-256-256z" />
<glyph unicode="&#xe98a;" d="M386.167 748.914c11.067 59.429 63.196 104.42 125.833 104.42 65.247 0 119.092-48.819 127-111.922 52.324 44.643 131.032 42.229 180.503-7.242s51.885-128.179 7.242-180.503c63.103-7.908 111.922-61.753 111.922-127s-48.819-119.092-111.922-127c44.643-52.324 42.229-131.032-7.242-180.503s-128.179-51.885-180.503-7.242c-7.908-63.103-61.753-111.922-127-111.922s-119.092 48.819-127 111.922c-52.324-44.643-131.032-42.229-180.503 7.242s-51.885 128.179-7.242 180.503c-63.103 7.908-111.922 61.753-111.922 127s48.819 119.092 111.922 127c-44.643 52.324-42.229 131.032 7.242 180.503 47.41 47.41 121.671 51.602 173.829 12.577l6.674-5.335 1.167 7.502zM426.667 640h-42.667c-11.316 0-22.168 4.495-30.17 12.497l-21.333 21.333c-18.684 18.684-48.976 18.684-67.66 0s-18.684-48.976 0-67.66l21.333-21.333c8.002-8.002 12.497-18.854 12.497-30.17v-42.667c0-23.564-19.103-42.667-42.667-42.667h-42.667c-23.564 0-42.667-19.103-42.667-42.667s19.103-42.667 42.667-42.667h42.667c23.564 0 42.667-19.103 42.667-42.667v-42.667c0-11.316-4.495-22.168-12.497-30.17l-21.333-21.333c-18.684-18.684-18.684-48.976 0-67.66s48.976-18.684 67.66 0l21.333 21.333c8.002 8.002 18.854 12.497 30.17 12.497h42.667c23.564 0 42.667-19.103 42.667-42.667v-42.667c0-23.564 19.103-42.667 42.667-42.667s42.667 19.103 42.667 42.667v42.667c0 23.564 19.103 42.667 42.667 42.667h42.667c11.316 0 22.168-4.495 30.17-12.497l21.333-21.333c18.684-18.684 48.976-18.684 67.66 0s18.684 48.976 0 67.66l-21.333 21.333c-8.002 8.002-12.497 18.854-12.497 30.17v42.667c0 23.564 19.103 42.667 42.667 42.667h42.667c23.564 0 42.667 19.103 42.667 42.667s-19.103 42.667-42.667 42.667h-42.667c-23.564 0-42.667 19.103-42.667 42.667v42.667c0 11.316 4.495 22.168 12.497 30.17l21.333 21.333c18.684 18.684 18.684 48.976 0 67.66s-48.976 18.684-67.66 0l-21.333-21.333c-8.002-8.002-18.854-12.497-30.17-12.497h-42.667c-23.564 0-42.667 19.103-42.667 42.667v42.667c0 23.564-19.103 42.667-42.667 42.667s-42.667-19.103-42.667-42.667v-42.667c0-23.564-19.103-42.667-42.667-42.667z" />
<glyph unicode="&#xe98b;" d="M512 277.334c82.475 0 149.333 66.859 149.333 149.333s-66.859 149.333-149.333 149.333c-82.475 0-149.333-66.859-149.333-149.333s66.859-149.333 149.333-149.333zM512 362.667c-35.346 0-64 28.654-64 64s28.654 64 64 64c35.346 0 64-28.654 64-64s-28.654-64-64-64z" />
<glyph unicode="&#xe98c;" d="M298.667 341.334c23.564 0 42.667-19.103 42.667-42.667s-19.103-42.667-42.667-42.667h-85.333c-23.564 0-42.667 19.103-42.667 42.667s19.103 42.667 42.667 42.667h85.333zM469.333 512c23.564 0 42.667-19.103 42.667-42.667s-19.103-42.667-42.667-42.667h-256c-23.564 0-42.667 19.103-42.667 42.667s19.103 42.667 42.667 42.667h256zM640 682.667c23.564 0 42.667-19.103 42.667-42.667s-19.103-42.667-42.667-42.667h-426.667c-23.564 0-42.667 19.103-42.667 42.667s19.103 42.667 42.667 42.667h426.667zM810.667 853.334c23.564 0 42.667-19.103 42.667-42.667s-19.103-42.667-42.667-42.667h-597.333c-23.564 0-42.667 19.103-42.667 42.667s19.103 42.667 42.667 42.667h597.333z" />
<glyph unicode="&#xe98d;" d="M682.667 469.334c23.564 0 42.667-19.103 42.667-42.667v-259.627l55.163 55.13c15.381 15.381 39.583 16.564 56.32 3.549l4.020-3.549c16.662-16.662 16.662-43.677 0-60.34v0l-128-128c-16.662-16.662-43.677-16.662-60.34 0v0l-128 128c-16.662 16.662-16.662 43.677 0 60.34s43.677 16.662 60.34 0v0l55.163-55.13v259.627c0 23.564 19.103 42.667 42.667 42.667z" />
<glyph unicode="&#xe98e;" d="M298.667 341.334c23.564 0 42.667-19.103 42.667-42.667s-19.103-42.667-42.667-42.667h-85.333c-23.564 0-42.667 19.103-42.667 42.667s19.103 42.667 42.667 42.667h85.333zM469.333 512c23.564 0 42.667-19.103 42.667-42.667s-19.103-42.667-42.667-42.667h-256c-23.564 0-42.667 19.103-42.667 42.667s19.103 42.667 42.667 42.667h256zM640 682.667c23.564 0 42.667-19.103 42.667-42.667s-19.103-42.667-42.667-42.667h-426.667c-23.564 0-42.667 19.103-42.667 42.667s19.103 42.667 42.667 42.667h426.667zM810.667 853.334c23.564 0 42.667-19.103 42.667-42.667s-19.103-42.667-42.667-42.667h-597.333c-23.564 0-42.667 19.103-42.667 42.667s19.103 42.667 42.667 42.667h597.333z" />
<glyph unicode="&#xe98f;" d="M712.837 456.837l128-128c16.662-16.662 16.662-43.677 0-60.34s-43.677-16.662-60.34 0l-55.163 55.173v-259.669c0-21.881-16.471-39.915-37.691-42.38l-4.976-0.287c-23.564 0-42.667 19.103-42.667 42.667v0 259.669l-55.163-55.173c-16.662-16.662-43.677-16.662-60.34 0s-16.662 43.677 0 60.34l128 128c16.662 16.662 43.677 16.662 60.34 0z" />
<glyph unicode="&#xe990;" d="M128-0c-23.564 0-42.667 19.103-42.667 42.667v384c0 23.564 19.103 42.667 42.667 42.667h85.333v341.333c0 23.564 19.103 42.667 42.667 42.667h512c23.564 0 42.667-19.103 42.667-42.667v-341.333h85.333c23.564 0 42.667-19.103 42.667-42.667v-384c0-23.564-19.103-42.667-42.667-42.667h-768zM469.333 384h-298.667v-298.667h298.667v298.667zM853.333 384h-298.667v-298.667h298.667v298.667zM725.333 768h-426.667v-298.667h426.667v298.667z" />
<glyph unicode="&#xe991;" d="M341.333 298.667c23.564 0 42.667-19.103 42.667-42.667s-19.103-42.667-42.667-42.667h-42.667c-23.564 0-42.667 19.103-42.667 42.667s19.103 42.667 42.667 42.667h42.667zM725.333 298.667c23.564 0 42.667-19.103 42.667-42.667s-19.103-42.667-42.667-42.667h-42.667c-23.564 0-42.667 19.103-42.667 42.667s19.103 42.667 42.667 42.667h42.667zM469.333 768v-67.66l12.497 12.497c16.662 16.662 43.677 16.662 60.34 0v0l12.497-12.497v67.66h85.333v-170.667c0-38.012-45.958-57.048-72.837-30.17v0l-55.163 55.163-55.163-55.163c-26.879-26.879-72.837-7.842-72.837 30.17v0 170.667h85.333z" />
<glyph unicode="&#xe992;" d="M213.333-0c-23.564 0-42.667 19.103-42.667 42.667v0 384c0 23.564 19.103 42.667 42.667 42.667s42.667-19.103 42.667-42.667v0-341.333h127.958l0.042 213.333c0 21.881 16.471 39.915 37.691 42.38l4.976 0.287h170.667c23.564 0 42.667-19.103 42.667-42.667v0l-0.042-213.333h128.042v341.333c0 23.564 19.103 42.667 42.667 42.667s42.667-19.103 42.667-42.667v-384c0-23.564-19.103-42.667-42.667-42.667h-213.333c-23.564 0-42.667 19.103-42.667 42.667v213.333h-85.333v-213.333c0-23.564-19.103-42.667-42.667-42.667v0zM810.667 853.334c17.447 0 33.136-10.622 39.615-26.821l85.333-213.333c11.21-28.026-9.43-58.513-39.615-58.513h-768c-30.185 0-50.825 30.486-39.615 58.513l85.333 213.333c6.48 16.199 22.168 26.821 39.615 26.821h597.333zM374.614 768h-132.394l-51.2-128h157.994l25.6 128zM562.347 768h-100.736l-25.6-128h151.936l-25.6 128zM781.78 768h-132.435l25.6-128h158.035l-51.2 128z" />
<glyph unicode="&#xe993;" d="M896 640c23.564 0 42.667-19.103 42.667-42.667v-42.667c0-94.257-76.41-170.667-170.667-170.667-50.996 0-96.768 22.366-128.041 57.824-31.192-35.458-76.963-57.824-127.959-57.824s-96.768 22.366-128.041 57.824c-31.192-35.458-76.963-57.824-127.959-57.824-94.257 0-170.667 76.41-170.667 170.667v42.667c0 23.564 19.103 42.667 42.667 42.667h768zM341.333 554.667h-170.667c0-47.128 38.205-85.333 85.333-85.333s85.333 38.205 85.333 85.333zM853.333 554.667h-170.667c0-47.128 38.205-85.333 85.333-85.333s85.333 38.205 85.333 85.333zM597.333 554.667h-170.667c0-47.128 38.205-85.333 85.333-85.333s85.333 38.205 85.333 85.333z" />
<glyph unicode="&#xe994;" d="M106.667 426.667c11.782 0 21.333-9.551 21.333-21.333v-362.667h768v362.667c0 11.782 9.551 21.333 21.333 21.333s21.333-9.551 21.333-21.333v-384c0-11.782-9.551-21.333-21.333-21.333h-810.667c-11.782 0-21.333 9.551-21.333 21.333v384c0 11.782 9.551 21.333 21.333 21.333z" />
<glyph unicode="&#xe995;" d="M527.085 847.085c-8.331 8.331-21.839 8.331-30.17 0l-256-256c-8.331-8.331-8.331-21.839 0-30.17s21.839-8.331 30.17 0l219.582 219.582v-503.164c0-11.782 9.551-21.333 21.333-21.333s21.333 9.551 21.333 21.333v503.164l219.582-219.582c8.331-8.331 21.839-8.331 30.17 0s8.331 21.839 0 30.17l-256 256z" />
<glyph unicode="&#xe996;" d="M512-0c235.641 0 426.667 191.025 426.667 426.667s-191.025 426.667-426.667 426.667c-235.641 0-426.667-191.025-426.667-426.667s191.025-426.667 426.667-426.667zM512 85.334c-188.513 0-341.333 152.82-341.333 341.333s152.82 341.333 341.333 341.333c188.513 0 341.333-152.82 341.333-341.333s-152.82-341.333-341.333-341.333z" />
<glyph unicode="&#xe997;" d="M576 384c70.692 0 128-57.308 128-128 0-23.564-19.103-42.667-42.667-42.667s-42.667 19.103-42.667 42.667v0l-0.287 4.976c-2.465 21.22-20.499 37.691-42.38 37.691v0h-128c-23.564 0-42.667-19.103-42.667-42.667v0l-0.287-4.976c-2.465-21.22-20.499-37.691-42.38-37.691-23.564 0-42.667 19.103-42.667 42.667 0 70.692 57.308 128 128 128v0zM512 682.667c70.692 0 128-57.308 128-128s-57.308-128-128-128c-70.692 0-128 57.308-128 128s57.308 128 128 128zM512 597.334c-23.564 0-42.667-19.103-42.667-42.667s19.103-42.667 42.667-42.667c23.564 0 42.667 19.103 42.667 42.667s-19.103 42.667-42.667 42.667z" />
<glyph unicode="&#xe998;" d="M512 341.334c141.385 0 256-114.615 256-256v0-42.667c0-23.564-19.103-42.667-42.667-42.667s-42.667 19.103-42.667 42.667v0 42.667c0 94.257-76.41 170.667-170.667 170.667v0h-170.667c-94.257 0-170.667-76.41-170.667-170.667v0-42.667c0-23.564-19.103-42.667-42.667-42.667s-42.667 19.103-42.667 42.667v0 42.667c0 141.385 114.615 256 256 256v0zM426.667 853.334c129.603 0 234.667-105.064 234.667-234.667s-105.064-234.667-234.667-234.667c-129.603 0-234.667 105.064-234.667 234.667s105.064 234.667 234.667 234.667zM426.667 768c-82.475 0-149.333-66.859-149.333-149.333s66.859-149.333 149.333-149.333c82.475 0 149.333 66.859 149.333 149.333s-66.859 149.333-149.333 149.333z" />
<glyph unicode="&#xe999;" d="M727.523 312.159c7.452 22.355 31.615 34.436 53.97 26.985 93.863-31.288 157.174-119.127 157.174-218.068v0-78.409c0-23.564-19.103-42.667-42.667-42.667s-42.667 19.103-42.667 42.667v0 78.409c0 62.21-39.808 117.441-98.826 137.113-22.355 7.452-34.436 31.615-26.985 53.97zM663.523 824.159c7.452 22.355 31.615 34.436 53.97 26.985 93.863-31.288 157.174-119.127 157.174-218.068v0-28.819c0-98.94-63.311-186.78-157.174-218.068-22.355-7.452-46.518 4.63-53.97 26.985s4.63 46.518 26.985 53.97c59.018 19.673 98.826 74.903 98.826 137.113v0 28.819c0 62.21-39.808 117.441-98.826 137.113-22.355 7.452-34.436 31.615-26.985 53.97z" />
<glyph unicode="&#xe99a;" d="M128 725.334c23.564 0 42.667-19.103 42.667-42.667v0-597.333h597.333c23.564 0 42.667-19.103 42.667-42.667s-19.103-42.667-42.667-42.667v0h-640c-23.564 0-42.667 19.103-42.667 42.667v0 640c0 23.564 19.103 42.667 42.667 42.667zM896 853.334c23.564 0 42.667-19.103 42.667-42.667v-597.333c0-23.564-19.103-42.667-42.667-42.667h-597.333c-23.564 0-42.667 19.103-42.667 42.667v597.333c0 23.564 19.103 42.667 42.667 42.667h597.333zM853.333 768h-512v-512h512v512z" />
<glyph unicode="&#xe99b;" d="M704.51 528.659l-157.85 126.28c-9.2 7.36-22.625 5.869-29.985-3.332-3.026-3.783-4.675-8.483-4.675-13.327v-252.56c0-11.782 9.551-21.333 21.333-21.333 4.844 0 9.544 1.649 13.327 4.675l157.85 126.28c9.2 7.36 10.692 20.785 3.332 29.985-0.984 1.23-2.102 2.348-3.332 3.332z" />
<glyph unicode="&#xe99c;" d="M512 725.334c124.567 0 230.779-53.106 318.17-140.497 30.121-30.121 55.854-62.288 77.331-94.503 9.779-14.669 17.213-27.066 22.324-36.359l4.338-8.227c6.006-12.012 6.006-26.15 0-38.162l-4.338-8.227c-3.407-6.195-7.847-13.77-13.325-22.478l-8.998-13.881c-21.477-32.215-47.21-64.382-77.331-94.503-87.391-87.391-193.603-140.497-318.17-140.497s-230.779 53.106-318.17 140.497c-30.121 30.121-55.854 62.288-77.331 94.503-9.779 14.669-17.213 27.066-22.324 36.359l-4.338 8.227c-6.006 12.012-6.006 26.15 0 38.162l4.338 8.227c3.407 6.195 7.847 13.77 13.325 22.478l8.998 13.881c21.477 32.215 47.21 64.382 77.331 94.503 87.391 87.391 193.603 140.497 318.17 140.497zM512 640c-99.433 0-185.221-42.894-257.83-115.503-25.879-25.879-48.146-53.712-66.669-81.497l-7.326-11.277c-1.107-1.752-2.157-3.439-3.15-5.055l3.15-5.055 7.326-11.277c18.523-27.785 40.79-55.618 66.669-81.497 72.609-72.609 158.397-115.503 257.83-115.503s185.221 42.894 257.83 115.503c21.566 21.566 40.623 44.489 57.096 67.61l13.406 19.713 6.642 10.507-3.15 5.055-7.326 11.277c-18.523 27.785-40.79 55.618-66.669 81.497-72.609 72.609-158.397 115.503-257.83 115.503zM512 597.334c94.257 0 170.667-76.41 170.667-170.667s-76.41-170.667-170.667-170.667c-94.257 0-170.667 76.41-170.667 170.667s76.41 170.667 170.667 170.667zM512 512c-47.128 0-85.333-38.205-85.333-85.333s38.205-85.333 85.333-85.333c47.128 0 85.333 38.205 85.333 85.333s-38.205 85.333-85.333 85.333z" />
<glyph unicode="&#xe99d;" d="M512 384c23.564 0 42.667-19.103 42.667-42.667v-85.333c0-23.564-19.103-42.667-42.667-42.667s-42.667 19.103-42.667 42.667v85.333c0 23.564 19.103 42.667 42.667 42.667zM682.667 469.334c23.564 0 42.667-19.103 42.667-42.667s-19.103-42.667-42.667-42.667h-85.333c-23.564 0-42.667 19.103-42.667 42.667s19.103 42.667 42.667 42.667h85.333zM426.667 469.334c23.564 0 42.667-19.103 42.667-42.667s-19.103-42.667-42.667-42.667h-85.333c-23.564 0-42.667 19.103-42.667 42.667s19.103 42.667 42.667 42.667h85.333zM512 640c23.564 0 42.667-19.103 42.667-42.667v-85.333c0-23.564-19.103-42.667-42.667-42.667s-42.667 19.103-42.667 42.667v85.333c0 23.564 19.103 42.667 42.667 42.667z" />
<glyph unicode="&#xe99e;" d="M896 853.334c23.564 0 42.667-19.103 42.667-42.667v-768c0-23.564-19.103-42.667-42.667-42.667h-768c-23.564 0-42.667 19.103-42.667 42.667v768c0 23.564 19.103 42.667 42.667 42.667h768zM853.333 512h-682.667v-426.667h682.667v426.667zM853.333 768h-682.667v-170.667h682.667v170.667zM256 725.334c23.564 0 42.667-19.103 42.667-42.667s-19.103-42.667-42.667-42.667c-23.564 0-42.667 19.103-42.667 42.667s19.103 42.667 42.667 42.667zM384 725.334c23.564 0 42.667-19.103 42.667-42.667s-19.103-42.667-42.667-42.667c-23.564 0-42.667 19.103-42.667 42.667s19.103 42.667 42.667 42.667zM512 725.334c23.564 0 42.667-19.103 42.667-42.667s-19.103-42.667-42.667-42.667c-23.564 0-42.667 19.103-42.667 42.667s19.103 42.667 42.667 42.667z" />
<glyph unicode="&#xe99f;" d="M425.674 410.096l150.849-30.17c16.708-3.342 22.949-23.956 10.901-36.004l-30.195-30.195 75.45-75.399c15.472-15.472 16.577-39.871 3.315-56.618l-3.315-3.721c-16.662-16.662-43.677-16.662-60.34 0v0l-75.45 75.399-30.145-30.145c-12.048-12.048-32.662-5.807-36.004 10.901l-30.17 150.849c-2.985 14.927 10.175 28.088 25.103 25.103z" />
<glyph unicode="&#xe9a0;" d="M512 768c188.513 0 341.333-152.82 341.333-341.333s-152.82-341.333-341.333-341.333c-188.513 0-341.333 152.82-341.333 341.333s152.82 341.333 341.333 341.333zM512 682.667c-141.385 0-256-114.615-256-256s114.615-256 256-256c141.385 0 256 114.615 256 256s-114.615 256-256 256z" />
<glyph unicode="&#xe9a1;" d="M512 554.667c23.564 0 42.667-19.103 42.667-42.667v0-42.667h42.667c20.946 0 38.367-15.093 41.979-34.997l0.687-7.669c0-23.564-19.103-42.667-42.667-42.667v0h-42.667v-42.667c0-20.946-15.093-38.367-34.997-41.979l-7.669-0.687c-23.564 0-42.667 19.103-42.667 42.667v0 42.667h-42.667c-20.946 0-38.367 15.093-41.979 34.997l-0.687 7.669c0 23.564 19.103 42.667 42.667 42.667v0h42.667v42.667c0 20.946 15.093 38.367 34.997 41.979z" />
<glyph unicode="&#xe9a2;" glyph-name="small-add" d="M512 768c23.564 0 42.667-19.103 42.667-42.667v-255.915l256-0.085c23.564 0 42.667-19.103 42.667-42.667s-19.103-42.667-42.667-42.667h-256v-256c0-23.564-19.103-42.667-42.667-42.667s-42.667 19.103-42.667 42.667v256h-256c-23.564 0-42.667 19.103-42.667 42.667s19.103 42.667 42.667 42.667h256v256c0 23.564 19.103 42.667 42.667 42.667z" />
<glyph unicode="&#xe9a3;" glyph-name="small-cancel" d="M183.163 755.504c16.662 16.662 43.677 16.662 60.34 0v0l268.497-268.506 268.497 268.506c14.811 14.811 37.802 16.457 54.431 4.937l5.909-4.937c16.662-16.662 16.662-43.677 0-60.34v0l-268.506-268.497 268.506-268.497c14.811-14.811 16.457-37.802 4.937-54.431l-4.937-5.909c-16.662-16.662-43.677-16.662-60.34 0v0l-268.497 268.506-268.497-268.506c-14.811-14.811-37.802-16.457-54.431-4.937l-5.909 4.937c-16.662 16.662-16.662 43.677 0 60.34v0l268.506 268.497-268.506 268.497c-14.811 14.811-16.457 37.802-4.937 54.431z" />
<glyph unicode="&#xe9a4;" glyph-name="small-check" d="M243.503 414.17c-16.662 16.662-43.677 16.662-60.34 0s-16.662-43.677 0-60.34l170.667-170.667c16.662-16.662 43.677-16.662 60.34 0l426.667 426.667c16.662 16.662 16.662 43.677 0 60.34s-43.677 16.662-60.34 0l-396.497-396.497-140.497 140.497z" />
<glyph unicode="&#xe9a5;" glyph-name="small-download" d="M810.667 426.667c23.564 0 42.667-19.103 42.667-42.667v-256c0-20.946-15.093-38.367-34.997-41.979l-7.669-0.687h-597.333c-23.564 0-42.667 19.103-42.667 42.667v256c0 23.564 19.103 42.667 42.667 42.667s42.667-19.103 42.667-42.667v-213.333h512v213.333c0 23.564 19.103 42.667 42.667 42.667zM512 768c23.564 0 42.667-19.103 42.667-42.667v-280.917l97.83 97.754c14.811 14.811 37.802 16.457 54.431 4.937l5.909-4.937c16.662-16.662 16.662-43.677 0-60.34v0l-170.667-170.667c-16.662-16.662-43.677-16.662-60.34 0v0l-170.667 170.667c-16.662 16.662-16.662 43.677 0 60.34s43.677 16.662 60.34 0v0l97.83-97.754v280.917c0 23.564 19.103 42.667 42.667 42.667z" />
<glyph unicode="&#xe9a6;" glyph-name="small-eye" d="M512 682.667c160.109 0 275.065-82.111 338.282-240.154 4.069-10.172 4.069-21.52 0-31.692-63.217-158.043-178.173-240.154-338.282-240.154s-275.065 82.111-338.282 240.154c-4.069 10.172-4.069 21.52 0 31.692 63.217 158.043 178.173 240.154 338.282 240.154zM512 597.334c-119.021 0-201.223-55.082-252.383-170.667 51.16-115.585 133.362-170.667 252.383-170.667 112.757 0 192.468 49.436 244.047 152.918l8.337 17.748-8.337 17.748c-51.578 103.482-131.29 152.918-244.047 152.918zM512 554.667c70.692 0 128-57.308 128-128s-57.308-128-128-128c-70.692 0-128 57.308-128 128s57.308 128 128 128zM512 469.334c-23.564 0-42.667-19.103-42.667-42.667s19.103-42.667 42.667-42.667c23.564 0 42.667 19.103 42.667 42.667s-19.103 42.667-42.667 42.667z" />
<glyph unicode="&#xe9a7;" glyph-name="small-move-to" d="M810.667 682.667c23.564 0 42.667-19.103 42.667-42.667v-426.667c0-23.564-19.103-42.667-42.667-42.667s-42.667 19.103-42.667 42.667v426.667c0 23.564 19.103 42.667 42.667 42.667zM396.497 670.17c16.662 16.662 43.677 16.662 60.34 0v0l213.333-213.333c0.349-0.349 0.69-0.702 1.025-1.060 0.981-1.051 1.922-2.166 2.804-3.327 0.752-0.984 1.448-1.989 2.097-3.015 0.596-0.949 1.17-1.942 1.704-2.959 0.622-1.182 1.168-2.354 1.657-3.544 0.444-1.073 0.858-2.207 1.224-3.362 0.411-1.311 0.757-2.622 1.040-3.943 0.62-2.875 0.946-5.879 0.946-8.959l-0.441 6.136c0.214-1.482 0.35-2.973 0.408-4.466l0.032-1.67c0-0.588-0.012-1.174-0.035-1.757-0.060-1.464-0.195-2.926-0.405-4.379-0.137-0.968-0.306-1.912-0.506-2.844-0.282-1.301-0.628-2.612-1.037-3.907-0.368-1.171-0.782-2.305-1.242-3.415-0.474-1.152-1.020-2.324-1.622-3.475-0.554-1.049-1.128-2.042-1.739-3.008-1.645-2.61-3.62-5.095-5.91-7.385l3.828 4.387c-0.882-1.161-1.822-2.276-2.817-3.34l-1.012-1.047-213.333-213.333c-16.662-16.662-43.677-16.662-60.34 0s-16.662 43.677 0 60.34v0l140.421 140.497h-323.584c-20.946 0-38.367 15.093-41.979 34.997l-0.687 7.669c0 23.564 19.103 42.667 42.667 42.667v0h323.584l-140.421 140.497c-14.811 14.811-16.457 37.802-4.937 54.431z" />
<glyph unicode="&#xe9a8;" glyph-name="small-angle-up" d="M243.503 268.497c-16.662-16.662-43.677-16.662-60.34 0s-16.662 43.677 0 60.34l298.667 298.667c16.662 16.662 43.677 16.662 60.34 0l298.667-298.667c16.662-16.662 16.662-43.677 0-60.34s-43.677-16.662-60.34 0l-268.497 268.497-268.497-268.497z" />
<glyph unicode="&#xe9a9;" d="M231.006 426.667l353.83-353.83c16.662-16.662 16.662-43.677 0-60.34s-43.677-16.662-60.34 0l-384 384c-16.662 16.662-16.662 43.677 0 60.34l384 384c16.662 16.662 43.677 16.662 60.34 0s16.662-43.677 0-60.34l-353.83-353.83z" />
<glyph unicode="&#xe9aa;" d="M529.673 426.667l353.83-353.83c16.662-16.662 16.662-43.677 0-60.34s-43.677-16.662-60.34 0l-384 384c-16.662 16.662-16.662 43.677 0 60.34l384 384c16.662 16.662 43.677 16.662 60.34 0s16.662-43.677 0-60.34l-353.83-353.83z" />
<glyph unicode="&#xe9ab;" d="M494.327 426.667l-353.83-353.83c-16.662-16.662-16.662-43.677 0-60.34s43.677-16.662 60.34 0l384 384c16.662 16.662 16.662 43.677 0 60.34l-384 384c-16.662 16.662-43.677 16.662-60.34 0s-16.662-43.677 0-60.34l353.83-353.83z" />
<glyph unicode="&#xe9ac;" d="M792.994 426.667l-353.83-353.83c-16.662-16.662-16.662-43.677 0-60.34s43.677-16.662 60.34 0l384 384c16.662 16.662 16.662 43.677 0 60.34l-384 384c-16.662 16.662-43.677 16.662-60.34 0s-16.662-43.677 0-60.34l353.83-353.83z" />
<glyph unicode="&#xe9ad;" glyph-name="small-dropdown" d="M542.17 225.83l341.333 341.333c26.879 26.879 7.842 72.837-30.17 72.837h-682.667c-38.012 0-57.048-45.958-30.17-72.837l341.333-341.333c16.662-16.662 43.677-16.662 60.34 0z" />
<glyph unicode="&#xe9ae;" glyph-name="angle-left" d="M712.837 72.837c16.662-16.662 16.662-43.677 0-60.34s-43.677-16.662-60.34 0l-384 384c-16.662 16.662-16.662 43.677 0 60.34l384 384c16.662 16.662 43.677 16.662 60.34 0s16.662-43.677 0-60.34l-353.83-353.83 353.83-353.83z" />
<glyph unicode="&#xe9af;" glyph-name="small-angle-down" d="M243.503 584.837c-16.662 16.662-43.677 16.662-60.34 0s-16.662-43.677 0-60.34l298.667-298.667c16.662-16.662 43.677-16.662 60.34 0l298.667 298.667c16.662 16.662 16.662 43.677 0 60.34s-43.677 16.662-60.34 0l-268.497-268.497-268.497 268.497z" />
<glyph unicode="&#xe9b0;" d="M341.333 853.334l0.826-0.008c0.995-0.019 1.99-0.073 2.982-0.161l-3.808 0.169c2.16 0 4.282-0.16 6.356-0.47 0.725-0.111 1.468-0.242 2.209-0.393 0.94-0.188 1.865-0.409 2.778-0.661 0.667-0.187 1.323-0.384 1.976-0.598 0.839-0.272 1.683-0.579 2.514-0.912 0.757-0.303 1.495-0.622 2.226-0.963 0.882-0.414 1.752-0.858 2.605-1.331 0.517-0.283 1.038-0.586 1.554-0.901 1.091-0.671 2.151-1.386 3.177-2.147 1.671-1.237 3.266-2.611 4.776-4.121l-3.855 3.418c0.124-0.098 0.248-0.196 0.371-0.295l3.484-3.123 128-128c16.662-16.662 16.662-43.677 0-60.34s-43.677-16.662-60.34 0v0l-55.163 55.173v-238.336c0-23.564-19.103-42.667-42.667-42.667s-42.667 19.103-42.667 42.667v238.336l-55.163-55.173c-15.381-15.381-39.583-16.564-56.32-3.549l-4.020 3.549c-16.662 16.662-16.662 43.677 0 60.34v0l128 128 3.484 3.123c0.123 0.099 0.247 0.197 0.371 0.295 0.295 0.235 0.604 0.471 0.915 0.702 1.032 0.761 2.092 1.477 3.185 2.145 0.514 0.318 1.035 0.622 1.562 0.913 0.843 0.464 1.714 0.909 2.601 1.323 0.725 0.34 1.464 0.66 2.209 0.957 0.843 0.337 1.687 0.644 2.543 0.925 0.635 0.206 1.292 0.403 1.952 0.585 0.92 0.256 1.845 0.478 2.782 0.669 0.743 0.148 1.487 0.279 2.233 0.39 0.809 0.124 1.648 0.224 2.493 0.3 1.040 0.091 2.049 0.145 3.058 0.163 0.237 0.005 0.51 0.007 0.783 0.007z" />
<glyph unicode="&#xe9b1;" d="M682.667 426.667c23.564 0 42.667-19.103 42.667-42.667v0-238.293l55.163 55.13c16.662 16.662 43.677 16.662 60.34 0s16.662-43.677 0-60.34l-128-128c-1.215-1.215-2.502-2.356-3.855-3.418l3.855 3.418c-1.51-1.51-3.105-2.883-4.77-4.12-1.032-0.761-2.092-1.477-3.185-2.145-0.514-0.318-1.035-0.622-1.562-0.913-0.843-0.464-1.714-0.909-2.601-1.323-0.725-0.34-1.464-0.66-2.209-0.957-0.843-0.337-1.687-0.644-2.543-0.925-0.635-0.206-1.292-0.403-1.952-0.585-0.92-0.256-1.845-0.478-2.782-0.669-0.743-0.148-1.487-0.279-2.233-0.39-2.052-0.31-4.175-0.47-6.335-0.47l3.636 0.154c-0.738-0.063-1.478-0.106-2.218-0.131l-1.419-0.023c-0.475 0-0.948 0.008-1.419 0.023-0.726 0.024-1.494 0.069-2.261 0.135-0.924 0.078-1.805 0.182-2.676 0.312-0.725 0.111-1.468 0.242-2.209 0.393-0.94 0.188-1.865 0.409-2.778 0.661-0.667 0.187-1.323 0.384-1.976 0.598-0.839 0.272-1.683 0.579-2.514 0.912-0.757 0.303-1.495 0.622-2.226 0.963-0.882 0.414-1.752 0.858-2.605 1.331-0.517 0.283-1.038 0.586-1.554 0.901-1.091 0.671-2.151 1.386-3.177 2.147-0.318 0.232-0.626 0.468-0.933 0.709-1.342 1.056-2.629 2.197-3.844 3.412l-128 128c-16.662 16.662-16.662 43.677 0 60.34s43.677 16.662 60.34 0l55.163-55.13v238.293c0 21.881 16.471 39.915 37.691 42.38z" />
<glyph unicode="&#xe9b2;" d="M682.667 426.667c23.564 0 42.667-19.103 42.667-42.667v0-238.293l55.163 55.13c16.662 16.662 43.677 16.662 60.34 0s16.662-43.677 0-60.34l-128-128c-1.215-1.215-2.502-2.356-3.855-3.418l3.855 3.418c-1.51-1.51-3.105-2.883-4.77-4.12-1.032-0.761-2.092-1.477-3.185-2.145-0.514-0.318-1.035-0.622-1.562-0.913-0.843-0.464-1.714-0.909-2.601-1.323-0.725-0.34-1.464-0.66-2.209-0.957-0.843-0.337-1.687-0.644-2.543-0.925-0.635-0.206-1.292-0.403-1.952-0.585-0.92-0.256-1.845-0.478-2.782-0.669-0.743-0.148-1.487-0.279-2.233-0.39-2.052-0.31-4.175-0.47-6.335-0.47l3.636 0.154c-0.738-0.063-1.478-0.106-2.218-0.131l-1.419-0.023c-0.475 0-0.948 0.008-1.419 0.023-0.726 0.024-1.494 0.069-2.261 0.135-0.924 0.078-1.805 0.182-2.676 0.312-0.725 0.111-1.468 0.242-2.209 0.393-0.94 0.188-1.865 0.409-2.778 0.661-0.667 0.187-1.323 0.384-1.976 0.598-0.839 0.272-1.683 0.579-2.514 0.912-0.757 0.303-1.495 0.622-2.226 0.963-0.882 0.414-1.752 0.858-2.605 1.331-0.517 0.283-1.038 0.586-1.554 0.901-1.091 0.671-2.151 1.386-3.177 2.147-0.318 0.232-0.626 0.468-0.933 0.709-1.342 1.056-2.629 2.197-3.844 3.412l-128 128c-16.662 16.662-16.662 43.677 0 60.34s43.677 16.662 60.34 0l55.163-55.13v238.293c0 21.881 16.471 39.915 37.691 42.38z" />
<glyph unicode="&#xe9b3;" d="M341.333 853.334l0.826-0.008c0.995-0.019 1.99-0.073 2.982-0.161l-3.808 0.169c2.16 0 4.282-0.16 6.356-0.47 0.725-0.111 1.468-0.242 2.209-0.393 0.94-0.188 1.865-0.409 2.778-0.661 0.667-0.187 1.323-0.384 1.976-0.598 0.839-0.272 1.683-0.579 2.514-0.912 0.757-0.303 1.495-0.622 2.226-0.963 0.882-0.414 1.752-0.858 2.605-1.331 0.517-0.283 1.038-0.586 1.554-0.901 1.091-0.671 2.151-1.386 3.177-2.147 1.671-1.237 3.266-2.611 4.776-4.121l-3.855 3.418c0.124-0.098 0.248-0.196 0.371-0.295l3.484-3.123 128-128c16.662-16.662 16.662-43.677 0-60.34s-43.677-16.662-60.34 0v0l-55.163 55.173v-238.336c0-23.564-19.103-42.667-42.667-42.667s-42.667 19.103-42.667 42.667v238.336l-55.163-55.173c-15.381-15.381-39.583-16.564-56.32-3.549l-4.020 3.549c-16.662 16.662-16.662 43.677 0 60.34v0l128 128 3.484 3.123c0.123 0.099 0.247 0.197 0.371 0.295 0.295 0.235 0.604 0.471 0.915 0.702 1.032 0.761 2.092 1.477 3.185 2.145 0.514 0.318 1.035 0.622 1.562 0.913 0.843 0.464 1.714 0.909 2.601 1.323 0.725 0.34 1.464 0.66 2.209 0.957 0.843 0.337 1.687 0.644 2.543 0.925 0.635 0.206 1.292 0.403 1.952 0.585 0.92 0.256 1.845 0.478 2.782 0.669 0.743 0.148 1.487 0.279 2.233 0.39 0.809 0.124 1.648 0.224 2.493 0.3 1.040 0.091 2.049 0.145 3.058 0.163 0.237 0.005 0.51 0.007 0.783 0.007z" />
<glyph unicode="&#xe9b4;" glyph-name="small-angle-right" d="M351.606 155.767c-15.335-17.891-13.263-44.827 4.628-60.162s44.827-13.263 60.162 4.628l256 298.667c13.696 15.978 13.696 39.556 0 55.534l-256 298.667c-15.335 17.891-42.271 19.963-60.162 4.628s-19.963-42.271-4.628-60.162l232.2-270.899-232.2-270.9z" />
<glyph unicode="&#xe9b5;" d="M554.667 725.334v-597.333c0-23.564-19.103-42.667-42.667-42.667s-42.667 19.103-42.667 42.667v597.333c0 23.564 19.103 42.667 42.667 42.667s42.667-19.103 42.667-42.667z" />
<glyph unicode="&#xe9b6;" d="M286.17 414.17c-16.662 16.662-43.677 16.662-60.34 0s-16.662-43.677 0-60.34l256-256c16.662-16.662 43.677-16.662 60.34 0l256 256c16.662 16.662 16.662 43.677 0 60.34s-43.677 16.662-60.34 0l-225.83-225.83-225.83 225.83z" />
<glyph unicode="&#xe9b7;" glyph-name="small-angle-Left" d="M672.395 155.767c15.335-17.891 13.263-44.827-4.628-60.162s-44.827-13.263-60.162 4.628l-256 298.667c-13.696 15.978-13.696 39.556 0 55.534l256 298.667c15.335 17.891 42.271 19.963 60.162 4.628s19.963-42.271 4.628-60.162l-232.2-270.899 232.2-270.9z" />
<glyph unicode="&#xe9b8;" d="M213.333 469.334h597.333c23.564 0 42.667-19.103 42.667-42.667s-19.103-42.667-42.667-42.667h-597.333c-23.564 0-42.667 19.103-42.667 42.667s19.103 42.667 42.667 42.667z" />
<glyph unicode="&#xe9b9;" d="M499.503 200.837c16.662-16.662 16.662-43.677 0-60.34s-43.677-16.662-60.34 0l-256 256c-16.662 16.662-16.662 43.677 0 60.34l256 256c16.662 16.662 43.677 16.662 60.34 0s16.662-43.677 0-60.34l-225.83-225.83 225.83-225.83z" />
<glyph unicode="&#xe9ba;" d="M213.333 469.334h597.333c23.564 0 42.667-19.103 42.667-42.667s-19.103-42.667-42.667-42.667h-597.333c-23.564 0-42.667 19.103-42.667 42.667s19.103 42.667 42.667 42.667z" />
<glyph unicode="&#xe9bb;" d="M524.497 200.837c-16.662-16.662-16.662-43.677 0-60.34s43.677-16.662 60.34 0l256 256c16.662 16.662 16.662 43.677 0 60.34l-256 256c-16.662 16.662-43.677 16.662-60.34 0s-16.662-43.677 0-60.34l225.83-225.83-225.83-225.83z" />
<glyph unicode="&#xe9bc;" d="M554.667 725.334v-597.333c0-23.564-19.103-42.667-42.667-42.667s-42.667 19.103-42.667 42.667v597.333c0 23.564 19.103 42.667 42.667 42.667s42.667-19.103 42.667-42.667z" />
<glyph unicode="&#xe9bd;" d="M286.17 439.164c-16.662-16.662-43.677-16.662-60.34 0s-16.662 43.677 0 60.34l256 256c16.662 16.662 43.677 16.662 60.34 0l256-256c16.662-16.662 16.662-43.677 0-60.34s-43.677-16.662-60.34 0l-225.83 225.83-225.83-225.83z" />
<glyph unicode="&#xe9be;" glyph-name="angle-right" d="M664.994 426.667l-353.83-353.83c-16.662-16.662-16.662-43.677 0-60.34s43.677-16.662 60.34 0l384 384c16.662 16.662 16.662 43.677 0 60.34l-384 384c-16.662 16.662-43.677 16.662-60.34 0s-16.662-43.677 0-60.34l353.83-353.83z" />
<glyph unicode="&#xe9bf;" d="M576 853.334l4.976-0.287c16.323-1.896 29.836-13.004 35.203-27.99l1.079-3.723h22.741c10.817 0 20.694-4.026 28.215-10.66l99.785-0.006c21.881 0 39.915-16.471 42.38-37.691l0.287-4.976v-341.333c0-23.564-19.103-42.667-42.667-42.667-21.881 0-39.915 16.471-42.38 37.691l-0.287 4.976v298.667h-42.667c0-23.564-19.103-42.667-42.667-42.667h-256c-23.564 0-42.667 19.103-42.667 42.667h-42.667v-597.333h128c21.881 0 39.915-16.471 42.38-37.691l0.287-4.976c0-21.881-16.471-39.915-37.691-42.38l-4.976-0.287h-170.667c-21.881 0-39.915 16.471-42.38 37.691l-0.287 4.976v682.667c0 21.881 16.471 39.915 37.691 42.38l4.976 0.287 99.785 0.006c7.521 6.635 17.398 10.66 28.215 10.66h12.032l1.122 3.723c5.904 16.484 21.665 28.277 40.179 28.277h138.667z" />
<glyph unicode="&#xe9c0;" d="M640 384c23.564 0 42.667-19.103 42.667-42.667v-85.291l85.333-0.043c23.564 0 42.667-19.103 42.667-42.667s-19.103-42.667-42.667-42.667h-85.333v-85.333c0-23.564-19.103-42.667-42.667-42.667s-42.667 19.103-42.667 42.667v85.333h-85.333c-23.564 0-42.667 19.103-42.667 42.667s19.103 42.667 42.667 42.667h85.333v85.333c0 23.564 19.103 42.667 42.667 42.667z" />
<glyph unicode="&#xe9c1;" d="M605.281 579.466c17.86 25.004 55.497 23.501 71.306-2.848v0l256-426.667c12.124-20.206 5.572-46.415-14.635-58.538s-46.415-5.572-58.538 14.635v0l-222.519 370.865-175.509-245.712c-15.325-21.454-46.246-24.014-64.889-5.37v0l-91.199 91.199-141.797-212.696c-13.071-19.607-39.561-24.905-59.168-11.834s-24.905 39.561-11.834 59.168v0l170.667 256c14.935 22.403 46.632 25.541 65.671 6.503v0l92.386-92.386 184.059 257.682zM277.333 640c35.346 0 64-28.654 64-64s-28.654-64-64-64c-35.346 0-64 28.654-64 64s28.654 64 64 64z" />
<glyph unicode="&#xe9c2;" d="M896 768c23.564 0 42.667-19.103 42.667-42.667v-597.333c0-23.564-19.103-42.667-42.667-42.667h-768c-23.564 0-42.667 19.103-42.667 42.667v597.333c0 23.564 19.103 42.667 42.667 42.667h768zM853.333 682.667h-682.667v-512h682.667v512z" />
<glyph unicode="&#xe9c3;" d="M896 768c23.564 0 42.667-19.103 42.667-42.667v0-512c0-23.564-19.103-42.667-42.667-42.667s-42.667 19.103-42.667 42.667v0 469.333h-682.667v-426.667h200.533c23.564 0 42.667-19.103 42.667-42.667s-19.103-42.667-42.667-42.667v0h-243.2c-23.564 0-42.667 19.103-42.667 42.667v0 512c0 23.564 19.103 42.667 42.667 42.667v0h768zM384 426.667c23.564 0 42.667-19.103 42.667-42.667s-19.103-42.667-42.667-42.667h-85.333c-23.564 0-42.667 19.103-42.667 42.667s19.103 42.667 42.667 42.667h85.333zM384 597.334c23.564 0 42.667-19.103 42.667-42.667s-19.103-42.667-42.667-42.667h-85.333c-23.564 0-42.667 19.103-42.667 42.667s19.103 42.667 42.667 42.667h85.333z" />
<glyph unicode="&#xe9c4;" d="M640 597.334c94.257 0 170.667-76.41 170.667-170.667 0-43.261-16.096-82.762-42.626-112.842l-0.041-185.824c0-31.718-33.379-52.347-61.748-38.162v0l-66.252 33.126-66.252-33.126c-28.369-14.185-61.748 6.445-61.748 38.162v0l-0.002 185.781c-26.553 30.085-42.664 69.604-42.664 112.886 0 94.257 76.41 170.667 170.667 170.667zM640 256c-14.729 0-29.022 1.866-42.656 5.374l-0.010-64.338 23.586 11.793c12.012 6.006 26.15 6.006 38.162 0v0l23.586-11.793 0.032 64.349c-13.647-3.515-27.955-5.385-42.699-5.385zM640 512c-47.128 0-85.333-38.205-85.333-85.333s38.205-85.333 85.333-85.333c47.128 0 85.333 38.205 85.333 85.333s-38.205 85.333-85.333 85.333z" />
</font>
</defs>
</svg>
