<svg width="130" height="28" viewBox="0 0 130 28" fill="none" xmlns="http://www.w3.org/2000/svg">
<path d="M12.5048 2.36865C5.53906 2.36865 0 7.95173 0 14.8883C0 21.8248 5.53906 27.4925 12.5048 27.4925C19.3867 27.4925 25.0097 21.8248 25.0097 14.8883C24.9258 7.95173 19.3867 2.36865 12.5048 2.36865ZM7.46934 22.0786C6.46223 22.0786 5.53906 21.2327 5.53906 20.133C5.53906 19.1179 6.37831 18.1874 7.46934 18.1874C8.47644 18.1874 9.39961 19.0333 9.39961 20.133C9.31569 21.2327 8.47644 22.0786 7.46934 22.0786ZM7.46934 17.6798C6.46223 17.6798 5.53906 16.8339 5.53906 15.7342C5.53906 14.6345 6.37831 13.7886 7.46934 13.7886C8.47644 13.7886 9.39961 14.6345 9.39961 15.7342C9.31569 16.8339 8.47644 17.6798 7.46934 17.6798ZM7.46934 13.281C6.46223 13.281 5.53906 12.4351 5.53906 11.3354C5.53906 10.2357 6.37831 9.3898 7.46934 9.3898C8.47644 9.3898 9.39961 10.2357 9.39961 11.3354C9.39961 12.4351 8.47644 13.281 7.46934 13.281ZM12.4209 20.0484C11.4138 20.0484 10.4906 19.2025 10.4906 18.1028C10.4906 17.0031 11.3299 16.1572 12.4209 16.1572C13.428 16.1572 14.3512 17.0031 14.3512 18.1028C14.3512 19.2025 13.5119 20.0484 12.4209 20.0484ZM12.4209 15.6496C11.4138 15.6496 10.4906 14.8037 10.4906 13.704C10.4906 12.6043 11.3299 11.7584 12.4209 11.7584C13.428 11.7584 14.3512 12.6043 14.3512 13.704C14.3512 14.8037 13.5119 15.6496 12.4209 15.6496ZM12.4209 11.2508C11.4138 11.2508 10.4906 10.4049 10.4906 9.30521C10.4906 8.2901 11.3299 7.35959 12.4209 7.35959C13.428 7.35959 14.3512 8.20551 14.3512 9.30521C14.3512 10.4049 13.5119 11.2508 12.4209 11.2508ZM17.5403 17.6798C16.5332 17.6798 15.6101 16.8339 15.6101 15.7342C15.6101 14.6345 16.4493 13.7886 17.5403 13.7886C18.5475 13.7886 19.4706 14.6345 19.4706 15.7342C19.3867 16.8339 18.5475 17.6798 17.5403 17.6798ZM17.5403 13.281C16.5332 13.281 15.6101 12.4351 15.6101 11.3354C15.6101 10.2357 16.4493 9.3898 17.5403 9.3898C18.5475 9.3898 19.4706 10.2357 19.4706 11.3354C19.4706 12.4351 18.5475 13.281 17.5403 13.281Z" fill="white"/>
<path d="M35.7521 7.44406H34.4093L33.4861 4.22955L32.479 7.44406H31.1362L30.3809 2.28394H31.8076L32.1433 5.41385L32.9825 2.53771H33.9896L34.745 5.41385L35.0807 2.28394H36.5074L35.7521 7.44406Z" fill="white"/>
<path d="M37.3469 1.52266H34.2417C33.9899 1.52266 33.822 1.43807 33.6542 1.26888C33.4863 1.0997 33.4863 0.930514 33.4863 0.676737V0H34.6613V0.338369C34.6613 0.507553 34.7452 0.592145 34.9131 0.592145H37.3469V1.52266V1.52266Z" fill="white"/>
<path d="M42.0464 7.44418H40.7036L40.6197 6.85204C40.2001 7.35959 39.6126 7.52877 38.9412 7.52877C37.8502 7.52877 37.2627 6.93663 37.2627 5.75234V2.36865H38.6894V5.75234C38.6894 6.34448 38.9412 6.59826 39.5287 6.59826C39.9483 6.59826 40.284 6.34448 40.6197 5.75234V2.36865H42.0464V7.44418Z" fill="white"/>
<path d="M47.0819 3.63741C46.4945 3.38363 45.907 3.21445 45.2356 3.21445C44.5642 3.21445 44.2285 3.29904 44.2285 3.55282C44.2285 3.63741 44.3963 3.80659 44.732 3.89119L45.907 4.14496C47.0819 4.48333 47.5855 4.99088 47.5855 5.75221C47.5855 6.9365 46.7462 7.52865 45.1517 7.52865C44.4803 7.52865 43.8928 7.44406 43.4732 7.19028C43.0535 6.9365 42.8857 6.59814 42.8857 6.17517V5.32925H44.3124V5.9214C44.3124 6.34436 44.6481 6.59814 45.2356 6.59814C45.8231 6.59814 46.1588 6.34436 46.1588 5.83681C46.1588 5.58303 45.9909 5.41384 45.6552 5.24466C45.4874 5.16007 45.0677 5.07548 44.4803 4.90629C43.9767 4.73711 43.5571 4.65252 43.3053 4.48333C42.9696 4.22956 42.8018 3.89119 42.8018 3.55282C42.8018 2.7069 43.641 2.28394 45.2356 2.28394C46.2427 2.28394 46.998 2.45312 47.5016 2.79149L47.0819 3.63741Z" fill="white"/>
<path d="M48.5925 6.25989C48.9282 6.51367 49.3478 6.68285 49.7674 6.68285C50.6906 6.68285 51.1942 6.09071 51.1942 4.99101C51.1942 3.89131 50.6906 3.29917 49.7674 3.29917C49.3478 3.29917 48.9282 3.46835 48.5925 3.72213L48.1729 2.79161C48.6764 2.45324 49.2639 2.36865 49.9353 2.36865C50.7745 2.36865 51.362 2.62243 51.8656 3.04539C52.3691 3.46835 52.537 4.14509 52.537 5.0756C52.537 5.92152 52.2852 6.59826 51.8656 7.10581C51.4459 7.52877 50.7745 7.78255 49.9353 7.78255C49.2639 7.78255 48.7603 7.61337 48.1729 7.35959L48.5925 6.25989Z" fill="white"/>
<path d="M61.0979 7.44406H59.7551L59.6712 6.85191C59.3355 7.27487 58.8319 7.52865 58.0766 7.52865C56.9856 7.52865 56.482 6.9365 56.482 5.75221V4.14496C56.482 3.55282 56.1463 3.21445 55.5588 3.21445C55.0553 3.21445 54.7196 3.38363 54.5517 3.722L55.3071 4.14496V4.56792C54.9714 4.65252 54.8035 4.99088 54.8035 5.41385V6.17517C54.8035 6.42895 54.8874 6.51354 55.1392 6.51354H55.5588V7.44406H54.3839C54.0482 7.44406 53.7964 7.35946 53.6286 7.19028C53.4607 7.0211 53.2929 6.76732 53.2929 6.42895V5.32925C53.2929 4.8217 53.4607 4.48333 53.8803 4.31415L53.125 3.80659C53.2089 3.38363 53.5446 2.96067 54.0482 2.7069C54.4678 2.45312 55.0553 2.28394 55.6428 2.28394C56.3981 2.28394 56.9856 2.45312 57.4052 2.7069C57.7409 3.04526 57.9087 3.46823 57.9087 4.06037V5.75221C57.9087 6.34436 58.1605 6.59814 58.6641 6.59814C59.0837 6.59814 59.4194 6.34436 59.5872 5.75221V2.36853H61.014V7.44406H61.0979Z" fill="white"/>
<path d="M61.0975 1.52255H56.7334V0.592041H61.0975V1.52255Z" fill="white"/>
<path d="M66.5524 6.09071C66.5524 6.59826 66.3006 6.93663 65.881 7.1904C65.4614 7.44418 64.9578 7.52877 64.2864 7.52877C63.615 7.52877 63.1115 7.44418 62.6918 7.1904C62.2722 6.93663 62.0204 6.51367 62.0204 6.00611V5.16019C62.0204 4.82182 62.1883 4.56805 62.4401 4.22968C62.6918 3.9759 62.8597 3.72213 62.8597 3.63753C62.8597 3.38376 62.6918 3.21457 62.3561 3.21457H61.9365V2.36865H63.0275C63.7829 2.36865 64.2025 2.70702 64.2025 3.38376C64.2025 3.72213 64.0346 4.0605 63.7829 4.31427C63.5311 4.65264 63.3632 4.90642 63.3632 5.24479V6.00611C63.3632 6.42908 63.615 6.59826 64.2025 6.59826C64.706 6.59826 65.0418 6.42908 65.0418 6.00611V4.31427C65.0418 3.9759 64.8739 3.72213 64.5382 3.72213V3.38376L65.2935 2.36865H66.8042L65.881 3.55294C66.3006 3.63753 66.5524 3.89131 66.5524 4.31427V6.09071V6.09071Z" fill="white"/>
<path d="M122.027 21.74H125.217V10.4893H122.027V21.74Z" fill="white"/>
<path d="M90.9744 21.74H93.7439L98.108 10.4893H94.835L92.3172 18.2717L89.7994 10.4893H86.5264L90.9744 21.74Z" fill="white"/>
<path d="M54.4676 16.0723V10.4893H51.6142V11.2506C50.7749 10.8276 49.8518 10.4893 48.8447 10.4893C45.7394 10.4893 43.2217 13.027 43.2217 16.1569C43.2217 19.2868 45.7394 21.8246 48.8447 21.8246C49.8518 21.8246 50.7749 21.5708 51.6142 21.0633V21.74H54.4676V16.2415V16.1569C54.4676 16.0723 54.4676 16.0723 54.4676 16.0723ZM48.9286 19.1177C47.2501 19.1177 45.9912 17.7642 45.9912 16.1569C45.9912 14.4651 47.334 13.1962 48.9286 13.1962C50.6071 13.1962 51.866 14.5497 51.866 16.1569C51.866 17.7642 50.5232 19.1177 48.9286 19.1177Z" fill="white"/>
<path d="M125.217 7.86702C125.217 8.71294 124.545 9.47427 123.622 9.47427C122.783 9.47427 122.027 8.79753 122.027 7.86702C122.027 7.0211 122.699 6.25977 123.622 6.25977C124.461 6.25977 125.217 7.0211 125.217 7.86702Z" fill="white"/>
<path d="M130 7.86702C130 8.71294 129.328 9.47427 128.405 9.47427C127.566 9.47427 126.811 8.79753 126.811 7.86702C126.811 7.0211 127.482 6.25977 128.405 6.25977C129.244 6.25977 130 7.0211 130 7.86702Z" fill="white"/>
<path d="M65.1262 11.42C64.5387 10.7433 63.6155 10.3203 62.4406 10.3203C61.6852 10.3203 60.9299 10.4895 60.5103 10.6587C59.9228 10.8279 59.755 10.997 59.1675 11.1662L58.6639 11.42V10.4895H55.7266V21.7403H58.6639V14.3807L58.7479 14.2961C59.755 13.3656 60.5942 12.8581 61.4335 12.8581C62.0209 12.8581 62.4406 13.0273 62.6923 13.281C63.028 13.5348 63.112 14.127 63.112 15.0575V21.7403H66.1333V14.2961C66.0494 13.0273 65.7136 12.0967 65.1262 11.42Z" fill="white"/>
<path d="M119.425 11.42C118.838 10.7433 117.914 10.3203 116.739 10.3203C115.984 10.3203 115.229 10.4895 114.809 10.6587C114.222 10.8279 114.054 10.997 113.466 11.1662L112.963 11.42V10.4895H110.025V21.7403H112.963V14.3807L113.047 14.2961C114.054 13.3656 114.893 12.8581 115.732 12.8581C116.32 12.8581 116.739 13.0273 116.991 13.281C117.327 13.5348 117.411 14.127 117.411 15.0575V21.7403H120.432V14.2961C120.348 13.0273 120.096 12.0967 119.425 11.42Z" fill="white"/>
<path d="M36.6753 10.2358C35.5843 10.2358 34.4933 10.5742 33.5701 11.1664L33.3183 11.3355V10.4896H30.4648V27.408L31.7237 26.8159C32.6469 26.3929 33.3183 25.4624 33.3183 24.4473V20.8945L33.5701 21.0636C34.4933 21.6558 35.5843 21.9941 36.6753 21.9941C39.8645 21.9941 42.5501 19.3718 42.5501 16.0727C42.5501 12.8582 39.9484 10.2358 36.6753 10.2358ZM36.6753 19.118C34.9968 19.118 33.654 17.7645 33.654 16.0727C33.654 14.3809 34.9968 13.0274 36.6753 13.0274C38.3538 13.0274 39.6966 14.3809 39.6966 16.0727C39.6966 17.7645 38.3538 19.118 36.6753 19.118Z" fill="white"/>
<path d="M126.811 10.4893V23.2627C126.811 25.1237 125.972 25.5467 125.133 25.6313V27.9152C125.385 27.9152 125.636 27.9998 125.972 27.9998C127.315 27.9998 128.07 27.5769 128.826 26.9001C129.581 26.1388 130 24.9545 130 23.4319V10.4893H126.811Z" fill="white"/>
<path d="M75.2811 20.6405C75.2811 20.6405 74.7775 20.0483 74.274 18.9486L74.19 18.6949L73.9383 18.864C73.6026 19.1178 73.1829 19.2024 72.7633 19.2024C71.8401 19.2024 71.4205 18.6949 71.4205 17.6797V12.3504H74.4418V10.0665H71.4205V7.61328H71.1687H70.3295H68.0635V10.2356H66.7207V12.0967H67.9796V17.5952C67.9796 20.3867 69.1545 21.8248 71.6723 21.8248C73.3508 21.8248 74.3579 21.3172 74.9454 20.8097L75.2811 20.6405Z" fill="white"/>
<path d="M85.8553 16.0723V10.4893H83.0019V11.2506C82.1626 10.8276 81.2395 10.4893 80.2324 10.4893C77.1271 10.4893 74.6094 13.027 74.6094 16.1569C74.6094 19.2868 77.1271 21.8246 80.2324 21.8246C81.2395 21.8246 82.1626 21.5708 83.0019 21.0633V21.74H85.8553V16.2415V16.1569C85.8553 16.0723 85.8553 16.0723 85.8553 16.0723ZM80.2324 19.1177C78.5539 19.1177 77.295 17.7642 77.295 16.1569C77.295 14.4651 78.6378 13.1962 80.2324 13.1962C81.9109 13.1962 83.1697 14.5497 83.1697 16.1569C83.1697 17.7642 81.8269 19.1177 80.2324 19.1177Z" fill="white"/>
<path d="M108.767 16.0723V10.4893H105.914V11.2506C105.075 10.8276 104.152 10.4893 103.144 10.4893C100.039 10.4893 97.5215 13.027 97.5215 16.1569C97.5215 19.2868 100.039 21.8246 103.144 21.8246C104.152 21.8246 105.075 21.5708 105.914 21.0633V21.74H108.767V16.2415V16.1569C108.767 16.0723 108.767 16.0723 108.767 16.0723ZM103.228 19.1177C101.55 19.1177 100.291 17.7642 100.291 16.1569C100.291 14.4651 101.634 13.1962 103.228 13.1962C104.907 13.1962 106.166 14.5497 106.166 16.1569C106.166 17.7642 104.823 19.1177 103.228 19.1177Z" fill="white"/>
</svg>
