<svg width="48" height="48" viewBox="0 0 48 48" fill="none" xmlns="http://www.w3.org/2000/svg">
<path d="M10 7V24.9474V36.3158V41C10 41.5523 10.4477 42 11 42H37C37.5523 42 38 41.5523 38 41V15L29 6H11C10.4477 6 10 6.44771 10 7Z" fill="#EEEEEE"/>
<path d="M29 14V6L38 15H30C29.4477 15 29 14.5523 29 14Z" fill="#D8D8D8"/>
<path d="M4 26C4 25.4477 4.44772 25 5 25H27C27.5523 25 28 25.4477 28 26V36C28 36.5523 27.5523 37 27 37H5C4.44772 37 4 36.5523 4 36V26Z" fill="#3AAFD1"/>
<path d="M11.6445 28.0781H12.8164V32.0156C12.8164 32.3776 12.7357 32.6979 12.5742 32.9766C12.4154 33.2526 12.1901 33.4661 11.8984 33.6172C11.6068 33.7682 11.2773 33.8438 10.9102 33.8438C10.3086 33.8438 9.83984 33.6914 9.50391 33.3867C9.16797 33.0794 9 32.6458 9 32.0859H10.1797C10.1797 32.3646 10.2383 32.5703 10.3555 32.7031C10.4727 32.8359 10.6576 32.9023 10.9102 32.9023C11.1341 32.9023 11.3125 32.8255 11.4453 32.6719C11.5781 32.5182 11.6445 32.2995 11.6445 32.0156V28.0781Z" fill="white"/>
<path d="M14.9922 31.7617V33.7656H13.8203V28.0781H16.0391C16.4661 28.0781 16.8411 28.1562 17.1641 28.3125C17.4896 28.4688 17.7396 28.6914 17.9141 28.9805C18.0885 29.2669 18.1758 29.5938 18.1758 29.9609C18.1758 30.5182 17.9844 30.9583 17.6016 31.2812C17.2214 31.6016 16.694 31.7617 16.0195 31.7617H14.9922ZM14.9922 30.8125H16.0391C16.349 30.8125 16.5846 30.7396 16.7461 30.5938C16.9102 30.4479 16.9922 30.2396 16.9922 29.9688C16.9922 29.6901 16.9102 29.4648 16.7461 29.293C16.582 29.1211 16.3555 29.0326 16.0664 29.0273H14.9922V30.8125Z" fill="white"/>
<path d="M23.4844 33.0469C23.2734 33.2995 22.9753 33.4961 22.5898 33.6367C22.2044 33.7747 21.7773 33.8438 21.3086 33.8438C20.8164 33.8438 20.3841 33.737 20.0117 33.5234C19.6419 33.3073 19.3555 32.9948 19.1523 32.5859C18.9518 32.1771 18.849 31.6966 18.8438 31.1445V30.7578C18.8438 30.1901 18.9388 29.6992 19.1289 29.2852C19.3216 28.8685 19.5977 28.5508 19.957 28.332C20.319 28.1107 20.7422 28 21.2266 28C21.901 28 22.4284 28.1615 22.8086 28.4844C23.1888 28.8047 23.4141 29.2721 23.4844 29.8867H22.3438C22.2917 29.5612 22.1758 29.3229 21.9961 29.1719C21.819 29.0208 21.5742 28.9453 21.2617 28.9453C20.8633 28.9453 20.5599 29.0951 20.3516 29.3945C20.1432 29.694 20.0378 30.1393 20.0352 30.7305V31.0938C20.0352 31.6901 20.1484 32.1406 20.375 32.4453C20.6016 32.75 20.9336 32.9023 21.3711 32.9023C21.8112 32.9023 22.125 32.8086 22.3125 32.6211V31.6406H21.2461V30.7773H23.4844V33.0469Z" fill="white"/>
</svg>
