<svg width="48" height="48" viewBox="0 0 48 48" fill="none" xmlns="http://www.w3.org/2000/svg">
<rect width="48" height="48" fill="white"/>
<path d="M10 7V24.9474V36.3158V41C10 41.5523 10.4477 42 11 42H37C37.5523 42 38 41.5523 38 41V15L29 6H11C10.4477 6 10 6.44771 10 7Z" fill="#EEEEEE"/>
<path d="M29 14V6L38 15H30C29.4477 15 29 14.5523 29 14Z" fill="#D8D8D8"/>
<path d="M4 26C4 25.4477 4.44772 25 5 25H27C27.5523 25 28 25.4477 28 26V36C28 36.5523 27.5523 37 27 37H5C4.44772 37 4 36.5523 4 36V26Z" fill="#DF4759"/>
<path d="M10.3047 31.9961V34H9.13281V28.3125H11.3516C11.7786 28.3125 12.1536 28.3906 12.4766 28.5469C12.8021 28.7031 13.0521 28.9258 13.2266 29.2148C13.401 29.5013 13.4883 29.8281 13.4883 30.1953C13.4883 30.7526 13.2969 31.1927 12.9141 31.5156C12.5339 31.8359 12.0065 31.9961 11.332 31.9961H10.3047ZM10.3047 31.0469H11.3516C11.6615 31.0469 11.8971 30.974 12.0586 30.8281C12.2227 30.6823 12.3047 30.474 12.3047 30.2031C12.3047 29.9245 12.2227 29.6992 12.0586 29.5273C11.8945 29.3555 11.668 29.2669 11.3789 29.2617H10.3047V31.0469Z" fill="white"/>
<path d="M14.2969 34V28.3125H16.0469C16.5469 28.3125 16.9935 28.4258 17.3867 28.6523C17.7826 28.8763 18.0911 29.1966 18.3125 29.6133C18.5339 30.0273 18.6445 30.4987 18.6445 31.0273V31.2891C18.6445 31.8177 18.5352 32.2878 18.3164 32.6992C18.1003 33.1107 17.7943 33.4297 17.3984 33.6562C17.0026 33.8828 16.556 33.9974 16.0586 34H14.2969ZM15.4688 29.2617V33.0586H16.0352C16.4935 33.0586 16.8438 32.9089 17.0859 32.6094C17.3281 32.3099 17.4518 31.8815 17.457 31.3242V31.0234C17.457 30.4453 17.3372 30.0078 17.0977 29.7109C16.8581 29.4115 16.5078 29.2617 16.0469 29.2617H15.4688Z" fill="white"/>
<path d="M22.9219 31.6758H20.6719V34H19.5V28.3125H23.2031V29.2617H20.6719V30.7305H22.9219V31.6758Z" fill="white"/>
</svg>
