<svg width="48" height="48" viewBox="0 0 48 48" fill="none" xmlns="http://www.w3.org/2000/svg">
<path d="M10 7V24.9474V36.3158V41C10 41.5523 10.4477 42 11 42H37C37.5523 42 38 41.5523 38 41V15L29 6H11C10.4477 6 10 6.44771 10 7Z" fill="#EEEEEE"/>
<path d="M29 14V6L38 15H30C29.4477 15 29 14.5523 29 14Z" fill="#D8D8D8"/>
<path d="M4 26C4 25.4477 4.44772 25 5 25H27C27.5523 25 28 25.4477 28 26V36C28 36.5523 27.5523 37 27 37H5C4.44772 37 4 36.5523 4 36V26Z" fill="#F3AF00"/>
<path d="M9.17188 31.7617V33.7656H8V28.0781H10.2188C10.6458 28.0781 11.0208 28.1562 11.3438 28.3125C11.6693 28.4688 11.9193 28.6914 12.0938 28.9805C12.2682 29.2669 12.3555 29.5938 12.3555 29.9609C12.3555 30.5182 12.1641 30.9583 11.7812 31.2812C11.401 31.6016 10.8737 31.7617 10.1992 31.7617H9.17188ZM9.17188 30.8125H10.2188C10.5286 30.8125 10.7643 30.7396 10.9258 30.5938C11.0898 30.4479 11.1719 30.2396 11.1719 29.9688C11.1719 29.6901 11.0898 29.4648 10.9258 29.293C10.7617 29.1211 10.5352 29.0326 10.2461 29.0273H9.17188V30.8125Z" fill="white"/>
<path d="M17.7891 33.7656H16.6172L14.3359 30.0234V33.7656H13.1641V28.0781H14.3359L16.6211 31.8281V28.0781H17.7891V33.7656Z" fill="white"/>
<path d="M23.3125 33.0469C23.1016 33.2995 22.8034 33.4961 22.418 33.6367C22.0326 33.7747 21.6055 33.8438 21.1367 33.8438C20.6445 33.8438 20.2122 33.737 19.8398 33.5234C19.4701 33.3073 19.1836 32.9948 18.9805 32.5859C18.7799 32.1771 18.6771 31.6966 18.6719 31.1445V30.7578C18.6719 30.1901 18.7669 29.6992 18.957 29.2852C19.1497 28.8685 19.4258 28.5508 19.7852 28.332C20.1471 28.1107 20.5703 28 21.0547 28C21.7292 28 22.2565 28.1615 22.6367 28.4844C23.0169 28.8047 23.2422 29.2721 23.3125 29.8867H22.1719C22.1198 29.5612 22.0039 29.3229 21.8242 29.1719C21.6471 29.0208 21.4023 28.9453 21.0898 28.9453C20.6914 28.9453 20.388 29.0951 20.1797 29.3945C19.9714 29.694 19.8659 30.1393 19.8633 30.7305V31.0938C19.8633 31.6901 19.9766 32.1406 20.2031 32.4453C20.4297 32.75 20.7617 32.9023 21.1992 32.9023C21.6393 32.9023 21.9531 32.8086 22.1406 32.6211V31.6406H21.0742V30.7773H23.3125V33.0469Z" fill="white"/>
</svg>
