<svg width="48" height="48" viewBox="0 0 48 48" fill="none" xmlns="http://www.w3.org/2000/svg">
<path d="M10 7V24.9474V36.3158V41C10 41.5523 10.4477 42 11 42H37C37.5523 42 38 41.5523 38 41V15L29 6H11C10.4477 6 10 6.44771 10 7Z" fill="#EEEEEE"/>
<path d="M29 14V6L38 15H30C29.4477 15 29 14.5523 29 14Z" fill="#D8D8D8"/>
<path d="M4 26C4 25.4477 4.44772 25 5 25H27C27.5523 25 28 25.4477 28 26V36C28 36.5523 27.5523 37 27 37H5C4.44772 37 4 36.5523 4 36V26Z" fill="#49BA62"/>
<path d="M11.457 30.0391L12.5234 28.0781H13.8711L12.2148 30.8984L13.9141 33.7656H12.5508L11.457 31.7734L10.3633 33.7656H9L10.6992 30.8984L9.04297 28.0781H10.3906L11.457 30.0391Z" fill="white"/>
<path d="M15.6797 32.8242H18.168V33.7656H14.5078V28.0781H15.6797V32.8242Z" fill="white"/>
<path d="M21.793 32.2734C21.793 32.0521 21.7148 31.8828 21.5586 31.7656C21.4023 31.6458 21.1211 31.5208 20.7148 31.3906C20.3086 31.2578 19.987 31.1276 19.75 31C19.1042 30.651 18.7812 30.181 18.7812 29.5898C18.7812 29.2826 18.8672 29.0091 19.0391 28.7695C19.2135 28.5273 19.4622 28.3385 19.7852 28.2031C20.1107 28.0677 20.4753 28 20.8789 28C21.2852 28 21.6471 28.0742 21.9648 28.2227C22.2826 28.3685 22.5286 28.5755 22.7031 28.8438C22.8802 29.112 22.9688 29.4167 22.9688 29.7578H21.7969C21.7969 29.4974 21.7148 29.2956 21.5508 29.1523C21.3867 29.0065 21.1562 28.9336 20.8594 28.9336C20.5729 28.9336 20.3503 28.9948 20.1914 29.1172C20.0326 29.237 19.9531 29.3958 19.9531 29.5938C19.9531 29.7786 20.0456 29.9336 20.2305 30.0586C20.418 30.1836 20.6927 30.3008 21.0547 30.4102C21.7214 30.6107 22.207 30.8594 22.5117 31.1562C22.8164 31.4531 22.9688 31.8229 22.9688 32.2656C22.9688 32.7578 22.7826 33.1445 22.4102 33.4258C22.0378 33.7044 21.5365 33.8438 20.9062 33.8438C20.4688 33.8438 20.0703 33.7643 19.7109 33.6055C19.3516 33.444 19.0768 33.224 18.8867 32.9453C18.6992 32.6667 18.6055 32.3438 18.6055 31.9766H19.7812C19.7812 32.6042 20.1562 32.918 20.9062 32.918C21.1849 32.918 21.4023 32.862 21.5586 32.75C21.7148 32.6354 21.793 32.4766 21.793 32.2734Z" fill="white"/>
</svg>
